G75*
G70*
%OFA0B0*%
%FSLAX24Y24*%
%IPPOS*%
%LPD*%
%AMOC8*
5,1,8,0,0,1.08239X$1,22.5*
%
%ADD10C,0.0670*%
%ADD11C,0.0750*%
%ADD12C,0.0950*%
%ADD13C,0.0160*%
D10*
X003645Y001050D03*
X005365Y001717D03*
X008184Y000691D03*
X010219Y000625D03*
X011810Y000928D03*
X014810Y000928D03*
X016058Y000967D03*
X017058Y000967D03*
X016082Y002373D03*
X015082Y002373D03*
X014082Y002373D03*
X008381Y001734D03*
X005562Y002760D03*
X003645Y003050D03*
X003645Y004200D03*
X005562Y004509D03*
X005365Y005513D03*
X003645Y006200D03*
X008184Y006539D03*
X010219Y006625D03*
X011810Y006145D03*
X014810Y006145D03*
X016058Y006243D03*
X017058Y006243D03*
X016082Y004853D03*
X015082Y004853D03*
X014082Y004853D03*
X008381Y005536D03*
D11*
X005149Y003625D03*
X014149Y003625D03*
X017149Y005034D03*
X017149Y002215D03*
D12*
X018290Y002247D03*
X018290Y003625D03*
X018290Y005003D03*
X001873Y005003D03*
X001873Y003625D03*
X001873Y002247D03*
D13*
X001634Y000461D02*
X001440Y000380D01*
X007738Y000380D01*
X007730Y000388D01*
X007649Y000584D01*
X007649Y000797D01*
X007730Y000994D01*
X007881Y001144D01*
X008078Y001226D01*
X008210Y001226D01*
X008078Y001280D01*
X007927Y001431D01*
X007846Y001627D01*
X007846Y001741D01*
X007805Y001700D01*
X007805Y001700D01*
X007504Y001527D01*
X007504Y001527D01*
X007168Y001437D01*
X005828Y001437D01*
X005818Y001414D01*
X005668Y001263D01*
X005483Y001187D01*
X005376Y001039D01*
X005376Y001039D01*
X005376Y001039D01*
X005133Y000863D01*
X005133Y000863D01*
X004848Y000770D01*
X004108Y000770D01*
X004098Y000747D01*
X003948Y000597D01*
X003751Y000515D01*
X003538Y000515D01*
X003342Y000597D01*
X003191Y000747D01*
X003110Y000944D01*
X003110Y001156D01*
X003191Y001353D01*
X003342Y001504D01*
X003538Y001585D01*
X003751Y001585D01*
X003948Y001504D01*
X004098Y001353D01*
X004108Y001330D01*
X004698Y001330D01*
X004759Y001335D01*
X004874Y001372D01*
X004920Y001405D01*
X004911Y001414D01*
X004830Y001610D01*
X004830Y001823D01*
X004911Y002020D01*
X005062Y002170D01*
X005259Y002252D01*
X005471Y002252D01*
X005668Y002170D01*
X005818Y002020D01*
X005828Y001997D01*
X006995Y001997D01*
X007094Y002003D01*
X007285Y002055D01*
X007457Y002154D01*
X007532Y002219D01*
X007532Y002219D01*
X007544Y002232D01*
X007571Y002259D01*
X007661Y002348D01*
X007661Y002348D01*
X007977Y002531D01*
X007977Y002531D01*
X008330Y002625D01*
X012619Y002625D01*
X013044Y002511D01*
X013425Y002291D01*
X013425Y002291D01*
X013542Y002175D01*
X013542Y002175D01*
X013581Y002136D01*
X013611Y002111D01*
X013547Y002266D01*
X013547Y002479D01*
X013628Y002676D01*
X013779Y002826D01*
X013975Y002908D01*
X014188Y002908D01*
X014385Y002826D01*
X014535Y002676D01*
X014582Y002564D01*
X014628Y002676D01*
X014779Y002826D01*
X014975Y002908D01*
X015188Y002908D01*
X015385Y002826D01*
X015535Y002676D01*
X015582Y002564D01*
X015628Y002676D01*
X015779Y002826D01*
X015975Y002908D01*
X016188Y002908D01*
X016385Y002826D01*
X016535Y002676D01*
X016617Y002479D01*
X016617Y002434D01*
X016661Y002541D01*
X016823Y002703D01*
X017034Y002790D01*
X017263Y002790D01*
X017474Y002703D01*
X017636Y002541D01*
X017659Y002486D01*
X017718Y002629D01*
X017908Y002819D01*
X018156Y002922D01*
X018425Y002922D01*
X018673Y002819D01*
X018862Y002629D01*
X018965Y002381D01*
X018965Y002113D01*
X018916Y001994D01*
X019046Y001994D01*
X019351Y001868D01*
X019584Y001634D01*
X019665Y001440D01*
X019665Y005810D01*
X019584Y005615D01*
X019351Y005382D01*
X019046Y005256D01*
X018916Y005256D01*
X018965Y005137D01*
X018965Y004869D01*
X018862Y004620D01*
X018673Y004431D01*
X018425Y004328D01*
X018355Y004328D01*
X018252Y004186D01*
X018252Y003663D01*
X018252Y003587D01*
X017635Y003587D01*
X017635Y003582D01*
X017646Y003497D01*
X017669Y003414D01*
X017702Y003335D01*
X017744Y003260D01*
X017797Y003192D01*
X017857Y003131D01*
X017926Y003079D01*
X018000Y003036D01*
X018079Y003003D01*
X018162Y002981D01*
X018247Y002970D01*
X018252Y002970D01*
X018252Y003587D01*
X018328Y003587D01*
X018328Y002970D01*
X018333Y002970D01*
X018418Y002981D01*
X018501Y003003D01*
X018581Y003036D01*
X018655Y003079D01*
X018723Y003131D01*
X018784Y003192D01*
X018836Y003260D01*
X018879Y003335D01*
X018912Y003414D01*
X018934Y003497D01*
X018945Y003582D01*
X018945Y003587D01*
X018328Y003587D01*
X018328Y003663D01*
X018252Y003663D01*
X017635Y003663D01*
X017635Y003668D01*
X017646Y003753D01*
X017669Y003836D01*
X017682Y003867D01*
X017589Y003837D01*
X016571Y003837D01*
X016295Y003926D01*
X016295Y003926D01*
X016061Y004097D01*
X016061Y004097D01*
X015891Y004331D01*
X015891Y004331D01*
X015883Y004357D01*
X015779Y004400D01*
X015628Y004550D01*
X015582Y004662D01*
X015535Y004550D01*
X015385Y004400D01*
X015188Y004318D01*
X014975Y004318D01*
X014779Y004400D01*
X014628Y004550D01*
X014582Y004662D01*
X014535Y004550D01*
X014385Y004400D01*
X014188Y004318D01*
X013975Y004318D01*
X013779Y004400D01*
X013652Y004526D01*
X010956Y004526D01*
X010350Y004646D01*
X010350Y004646D01*
X009779Y004883D01*
X009779Y004883D01*
X009266Y005226D01*
X009266Y005226D01*
X009087Y005405D01*
X009087Y005405D01*
X009047Y005444D01*
X008939Y005539D01*
X008916Y005553D01*
X008916Y005429D01*
X008834Y005232D01*
X008684Y005082D01*
X008606Y005050D01*
X008551Y004807D01*
X008551Y004807D01*
X008337Y004363D01*
X008337Y004363D01*
X008029Y003977D01*
X008029Y003977D01*
X008029Y003977D01*
X007643Y003669D01*
X007643Y003669D01*
X007198Y003455D01*
X007198Y003455D01*
X006717Y003345D01*
X005655Y003345D01*
X005636Y003299D01*
X005610Y003274D01*
X005682Y003262D01*
X005738Y003244D01*
X005562Y002760D01*
X006046Y002584D01*
X006064Y002639D01*
X006077Y002719D01*
X006077Y002800D01*
X006064Y002881D01*
X006039Y002958D01*
X006002Y003030D01*
X005955Y003095D01*
X005897Y003153D01*
X005832Y003200D01*
X005759Y003237D01*
X005738Y003244D01*
X005562Y002760D01*
X005562Y002760D01*
X005562Y002760D01*
X006046Y002584D01*
X006039Y002562D01*
X006002Y002490D01*
X005955Y002424D01*
X005897Y002367D01*
X005832Y002319D01*
X005759Y002283D01*
X005682Y002258D01*
X005602Y002245D01*
X005521Y002245D01*
X005441Y002258D01*
X005386Y002276D01*
X005562Y002760D01*
X005562Y002760D01*
X005562Y002760D01*
X005078Y002936D01*
X005059Y002881D01*
X005047Y002800D01*
X005047Y002719D01*
X005059Y002639D01*
X005085Y002562D01*
X005121Y002490D01*
X005169Y002424D01*
X005226Y002367D01*
X005292Y002319D01*
X005364Y002283D01*
X005386Y002276D01*
X005562Y002760D01*
X005078Y002936D01*
X005085Y002958D01*
X005121Y003030D01*
X005136Y003050D01*
X005034Y003050D01*
X004823Y003137D01*
X004661Y003299D01*
X004574Y003511D01*
X004574Y003739D01*
X004648Y003920D01*
X004108Y003920D01*
X004098Y003897D01*
X003948Y003746D01*
X003751Y003665D01*
X003664Y003665D01*
X003744Y003585D01*
X003751Y003585D01*
X003948Y003504D01*
X004098Y003353D01*
X004180Y003156D01*
X004180Y002944D01*
X004098Y002747D01*
X003948Y002597D01*
X003751Y002515D01*
X003538Y002515D01*
X003342Y002597D01*
X003191Y002747D01*
X003110Y002944D01*
X003110Y003156D01*
X003177Y003319D01*
X003127Y003339D01*
X003070Y003345D01*
X002488Y003345D01*
X002445Y003243D01*
X002255Y003053D01*
X002007Y002950D01*
X001739Y002950D01*
X001491Y003053D01*
X001301Y003243D01*
X001198Y003491D01*
X001198Y003759D01*
X001301Y004007D01*
X001491Y004197D01*
X001739Y004300D01*
X002007Y004300D01*
X002255Y004197D01*
X002445Y004007D01*
X002488Y003905D01*
X003188Y003905D01*
X003110Y004093D01*
X003110Y004306D01*
X003191Y004503D01*
X003231Y004543D01*
X003211Y004570D01*
X003079Y004666D01*
X002923Y004716D01*
X002841Y004723D01*
X002488Y004723D01*
X002445Y004620D01*
X002255Y004431D01*
X002007Y004328D01*
X001739Y004328D01*
X001491Y004431D01*
X001301Y004620D01*
X001198Y004869D01*
X001198Y005137D01*
X001247Y005256D01*
X000999Y005256D01*
X000694Y005382D01*
X000461Y005615D01*
X000380Y005810D01*
X000380Y001440D01*
X000461Y001634D01*
X000694Y001868D01*
X000999Y001994D01*
X001269Y001994D01*
X001251Y002036D01*
X001229Y002119D01*
X001218Y002204D01*
X001218Y002209D01*
X001835Y002209D01*
X001835Y002285D01*
X001835Y002902D01*
X001830Y002902D01*
X001745Y002891D01*
X001662Y002868D01*
X001583Y002836D01*
X001508Y002793D01*
X001440Y002740D01*
X001379Y002680D01*
X001327Y002612D01*
X001284Y002537D01*
X001251Y002458D01*
X001229Y002375D01*
X001218Y002290D01*
X001218Y002285D01*
X001835Y002285D01*
X001911Y002285D01*
X002528Y002285D01*
X002528Y002290D01*
X002517Y002375D01*
X002494Y002458D01*
X002462Y002537D01*
X002419Y002612D01*
X002366Y002680D01*
X002306Y002740D01*
X002238Y002793D01*
X002163Y002836D01*
X002084Y002868D01*
X002001Y002891D01*
X001916Y002902D01*
X001911Y002902D01*
X001911Y002285D01*
X001911Y002209D01*
X002528Y002209D01*
X002528Y002204D01*
X002517Y002119D01*
X002494Y002036D01*
X002462Y001957D01*
X002419Y001882D01*
X002366Y001814D01*
X002306Y001753D01*
X002238Y001701D01*
X002163Y001658D01*
X002084Y001625D01*
X002001Y001603D01*
X001916Y001592D01*
X001911Y001592D01*
X001911Y002209D01*
X001835Y002209D01*
X001835Y001667D01*
X001868Y001634D01*
X001994Y001329D01*
X001994Y000999D01*
X001868Y000694D01*
X001634Y000461D01*
X001671Y000497D02*
X007685Y000497D01*
X007649Y000656D02*
X004007Y000656D01*
X003283Y000656D02*
X001829Y000656D01*
X001917Y000814D02*
X003163Y000814D01*
X003110Y000973D02*
X001983Y000973D01*
X001994Y001131D02*
X003110Y001131D01*
X003165Y001290D02*
X001994Y001290D01*
X001945Y001448D02*
X003286Y001448D01*
X004003Y001448D02*
X004897Y001448D01*
X004831Y001607D02*
X002014Y001607D01*
X001911Y001607D02*
X001879Y001607D01*
X001911Y001765D02*
X001835Y001765D01*
X001835Y001924D02*
X001911Y001924D01*
X001911Y002082D02*
X001835Y002082D01*
X001835Y002241D02*
X000380Y002241D01*
X000380Y002082D02*
X001239Y002082D01*
X000829Y001924D02*
X000380Y001924D01*
X000380Y001765D02*
X000591Y001765D01*
X000449Y001607D02*
X000380Y001607D01*
X000380Y001448D02*
X000383Y001448D01*
X002317Y001765D02*
X004830Y001765D01*
X005365Y001717D02*
X005363Y001667D01*
X005358Y001618D01*
X005348Y001569D01*
X005335Y001520D01*
X005319Y001473D01*
X005299Y001428D01*
X005276Y001384D01*
X005249Y001341D01*
X005219Y001301D01*
X005187Y001263D01*
X005152Y001228D01*
X005114Y001196D01*
X005074Y001166D01*
X005032Y001139D01*
X004987Y001116D01*
X004942Y001096D01*
X004895Y001080D01*
X004846Y001067D01*
X004797Y001057D01*
X004748Y001052D01*
X004698Y001050D01*
X003645Y001050D01*
X004983Y000814D02*
X007656Y000814D01*
X007722Y000973D02*
X005285Y000973D01*
X005443Y001131D02*
X007868Y001131D01*
X008069Y001290D02*
X005694Y001290D01*
X005365Y001717D02*
X006995Y001717D01*
X007211Y001448D02*
X007920Y001448D01*
X007855Y001607D02*
X007642Y001607D01*
X008487Y001199D02*
X008684Y001280D01*
X008834Y001431D01*
X008916Y001627D01*
X008916Y001840D01*
X008834Y002037D01*
X008806Y002065D01*
X012399Y002065D01*
X012544Y002056D01*
X012824Y001981D01*
X013076Y001836D01*
X013185Y001740D01*
X013312Y001612D01*
X013645Y001475D01*
X014606Y001475D01*
X014876Y001563D01*
X014876Y001563D01*
X015106Y001730D01*
X015106Y001730D01*
X015185Y001838D01*
X015188Y001838D01*
X015385Y001919D01*
X015535Y002070D01*
X015582Y002182D01*
X015628Y002070D01*
X015779Y001919D01*
X015870Y001882D01*
X015638Y001836D01*
X015253Y001676D01*
X014927Y001458D01*
X014916Y001463D01*
X014704Y001463D01*
X014507Y001382D01*
X014356Y001231D01*
X014275Y001034D01*
X014275Y000822D01*
X014356Y000625D01*
X014507Y000474D01*
X014704Y000393D01*
X014916Y000393D01*
X015113Y000474D01*
X015263Y000625D01*
X015345Y000822D01*
X015345Y001034D01*
X015338Y001051D01*
X015522Y001173D01*
X015602Y001206D01*
X015581Y001165D01*
X015556Y001088D01*
X015543Y001008D01*
X015543Y000967D01*
X015543Y000927D01*
X015556Y000847D01*
X015581Y000770D01*
X015617Y000697D01*
X015665Y000632D01*
X015722Y000575D01*
X015788Y000527D01*
X015860Y000490D01*
X015937Y000465D01*
X016017Y000452D01*
X016058Y000452D01*
X016098Y000452D01*
X016179Y000465D01*
X016256Y000490D01*
X016328Y000527D01*
X016393Y000575D01*
X016451Y000632D01*
X016498Y000697D01*
X016535Y000770D01*
X016546Y000804D01*
X016604Y000664D01*
X016755Y000514D01*
X016952Y000432D01*
X017164Y000432D01*
X017361Y000514D01*
X017512Y000664D01*
X017554Y000767D01*
X017642Y000790D01*
X017987Y000990D01*
X018051Y001054D01*
X018051Y000999D01*
X018177Y000694D01*
X018411Y000461D01*
X018605Y000380D01*
X010673Y000380D01*
X010697Y000427D01*
X010722Y000504D01*
X010734Y000584D01*
X010734Y000625D01*
X010734Y000665D01*
X010722Y000745D01*
X010697Y000823D01*
X010660Y000895D01*
X010612Y000960D01*
X010555Y001018D01*
X010489Y001065D01*
X010417Y001102D01*
X010340Y001127D01*
X010260Y001140D01*
X010219Y001140D01*
X010179Y001140D01*
X010099Y001127D01*
X010022Y001102D01*
X009949Y001065D01*
X009884Y001018D01*
X009827Y000960D01*
X009779Y000895D01*
X009742Y000823D01*
X009717Y000745D01*
X009704Y000665D01*
X009704Y000625D01*
X010219Y000625D01*
X010219Y000625D01*
X009704Y000625D01*
X009704Y000584D01*
X009717Y000504D01*
X009742Y000427D01*
X009766Y000380D01*
X008630Y000380D01*
X008638Y000388D01*
X008719Y000584D01*
X008719Y000797D01*
X008638Y000994D01*
X008487Y001144D01*
X008355Y001199D01*
X008487Y001199D01*
X007729Y002022D02*
X007774Y002064D01*
X007822Y002104D01*
X007871Y002142D01*
X007923Y002176D01*
X007977Y002208D01*
X008032Y002236D01*
X008088Y002262D01*
X008146Y002284D01*
X008206Y002303D01*
X008266Y002318D01*
X008327Y002330D01*
X008388Y002339D01*
X008450Y002344D01*
X008512Y002346D01*
X008512Y002345D02*
X012399Y002345D01*
X012872Y002558D02*
X013579Y002558D01*
X013547Y002399D02*
X013239Y002399D01*
X013383Y001938D02*
X013419Y001905D01*
X013457Y001874D01*
X013498Y001847D01*
X013541Y001823D01*
X013585Y001802D01*
X013631Y001786D01*
X013678Y001772D01*
X013726Y001763D01*
X013775Y001757D01*
X013824Y001755D01*
X014463Y001755D01*
X014937Y001607D02*
X015149Y001607D01*
X015253Y001676D02*
X015253Y001676D01*
X015132Y001765D02*
X015467Y001765D01*
X015638Y001836D02*
X015638Y001836D01*
X015774Y001924D02*
X015389Y001924D01*
X015540Y002082D02*
X015623Y002082D01*
X015106Y001730D02*
X015106Y001730D01*
X014667Y001448D02*
X011953Y001448D01*
X011916Y001463D02*
X011704Y001463D01*
X011507Y001382D01*
X011356Y001231D01*
X011275Y001034D01*
X011275Y000822D01*
X011356Y000625D01*
X011507Y000474D01*
X011704Y000393D01*
X011916Y000393D01*
X012113Y000474D01*
X012263Y000625D01*
X012345Y000822D01*
X012345Y001034D01*
X012263Y001231D01*
X012113Y001382D01*
X011916Y001463D01*
X011667Y001448D02*
X008842Y001448D01*
X008693Y001290D02*
X011415Y001290D01*
X011315Y001131D02*
X010316Y001131D01*
X010219Y001131D02*
X010219Y001131D01*
X010219Y001140D02*
X010219Y000625D01*
X010219Y001140D01*
X010123Y001131D02*
X008500Y001131D01*
X008646Y000973D02*
X009839Y000973D01*
X010219Y000973D02*
X010219Y000973D01*
X010219Y000814D02*
X010219Y000814D01*
X010219Y000656D02*
X010219Y000656D01*
X010219Y000625D02*
X010219Y000625D01*
X010734Y000625D01*
X010219Y000625D01*
X010219Y000625D01*
X009704Y000656D02*
X008719Y000656D01*
X008712Y000814D02*
X009739Y000814D01*
X010600Y000973D02*
X011275Y000973D01*
X011278Y000814D02*
X010699Y000814D01*
X010734Y000656D02*
X011344Y000656D01*
X011484Y000497D02*
X010719Y000497D01*
X009719Y000497D02*
X008683Y000497D01*
X008907Y001607D02*
X013327Y001607D01*
X013312Y001612D02*
X013312Y001612D01*
X013156Y001765D02*
X008916Y001765D01*
X008881Y001924D02*
X012923Y001924D01*
X013476Y002241D02*
X013557Y002241D01*
X014463Y001755D02*
X014511Y001757D01*
X014560Y001763D01*
X014607Y001772D01*
X014654Y001785D01*
X014699Y001802D01*
X014744Y001822D01*
X014786Y001846D01*
X014826Y001873D01*
X014864Y001903D01*
X014900Y001936D01*
X014933Y001972D01*
X014963Y002010D01*
X014990Y002050D01*
X015014Y002092D01*
X015034Y002137D01*
X015051Y002182D01*
X015064Y002229D01*
X015073Y002276D01*
X015079Y002325D01*
X015081Y002373D01*
X014668Y002716D02*
X014495Y002716D01*
X014269Y002875D02*
X014895Y002875D01*
X015269Y002875D02*
X015895Y002875D01*
X015668Y002716D02*
X015495Y002716D01*
X016269Y002875D02*
X018041Y002875D01*
X018008Y003033D02*
X006000Y003033D01*
X005661Y003033D02*
X005661Y003033D01*
X005603Y002875D02*
X005603Y002875D01*
X005247Y002875D02*
X005247Y002875D01*
X005059Y002875D02*
X004151Y002875D01*
X004180Y003033D02*
X005124Y003033D01*
X004769Y003192D02*
X004165Y003192D01*
X004099Y003350D02*
X004640Y003350D01*
X004574Y003509D02*
X003936Y003509D01*
X003757Y003667D02*
X004574Y003667D01*
X004609Y003826D02*
X004027Y003826D01*
X003645Y004200D02*
X005252Y004200D01*
X005252Y004199D02*
X005284Y004201D01*
X005316Y004206D01*
X005348Y004214D01*
X005378Y004226D01*
X005407Y004241D01*
X005434Y004258D01*
X005459Y004279D01*
X005482Y004302D01*
X005503Y004327D01*
X005520Y004354D01*
X005535Y004383D01*
X005547Y004413D01*
X005555Y004445D01*
X005560Y004477D01*
X005562Y004509D01*
X005365Y005513D02*
X005429Y005575D01*
X005497Y005633D01*
X005567Y005688D01*
X005640Y005739D01*
X005716Y005787D01*
X005794Y005831D01*
X005873Y005871D01*
X005955Y005908D01*
X006038Y005940D01*
X006123Y005968D01*
X006209Y005991D01*
X006296Y006011D01*
X006384Y006026D01*
X006473Y006037D01*
X006562Y006044D01*
X006651Y006046D01*
X008270Y006046D01*
X008184Y006519D02*
X008184Y006539D01*
X008517Y006539D01*
X008184Y006519D02*
X003963Y006519D01*
X003930Y006517D01*
X003897Y006512D01*
X003864Y006503D01*
X003833Y006491D01*
X003804Y006476D01*
X003775Y006458D01*
X003750Y006437D01*
X003726Y006413D01*
X003705Y006388D01*
X003687Y006360D01*
X003672Y006330D01*
X003660Y006299D01*
X003651Y006266D01*
X003646Y006233D01*
X003644Y006200D01*
X001246Y005252D02*
X000380Y005252D01*
X000380Y005094D02*
X001198Y005094D01*
X001198Y004935D02*
X000380Y004935D01*
X000380Y004777D02*
X001236Y004777D01*
X001303Y004618D02*
X000380Y004618D01*
X000380Y004460D02*
X001462Y004460D01*
X001436Y004143D02*
X000380Y004143D01*
X000380Y004301D02*
X003110Y004301D01*
X003110Y004143D02*
X002310Y004143D01*
X002455Y003984D02*
X003155Y003984D01*
X003644Y004200D02*
X003642Y004255D01*
X003637Y004309D01*
X003627Y004363D01*
X003614Y004417D01*
X003598Y004469D01*
X003578Y004520D01*
X003554Y004569D01*
X003527Y004617D01*
X003497Y004663D01*
X003464Y004707D01*
X003428Y004748D01*
X003389Y004787D01*
X003348Y004823D01*
X003304Y004856D01*
X003258Y004886D01*
X003210Y004913D01*
X003161Y004937D01*
X003110Y004957D01*
X003058Y004973D01*
X003004Y004986D01*
X002950Y004996D01*
X002896Y005001D01*
X002841Y005003D01*
X001873Y005003D01*
X002443Y004618D02*
X003145Y004618D01*
X003173Y004460D02*
X002284Y004460D01*
X001291Y003984D02*
X000380Y003984D01*
X000380Y003826D02*
X001225Y003826D01*
X001198Y003667D02*
X000380Y003667D01*
X000380Y003509D02*
X001198Y003509D01*
X001256Y003350D02*
X000380Y003350D01*
X000380Y003192D02*
X001352Y003192D01*
X001538Y003033D02*
X000380Y003033D01*
X000380Y002875D02*
X001684Y002875D01*
X001835Y002875D02*
X001911Y002875D01*
X002061Y002875D02*
X003138Y002875D01*
X003110Y003033D02*
X002208Y003033D01*
X002394Y003192D02*
X003124Y003192D01*
X003070Y003625D02*
X003115Y003623D01*
X003160Y003618D01*
X003204Y003609D01*
X003248Y003597D01*
X003290Y003581D01*
X003331Y003562D01*
X003370Y003540D01*
X003408Y003515D01*
X003443Y003487D01*
X003477Y003457D01*
X003507Y003423D01*
X003535Y003388D01*
X003560Y003350D01*
X003582Y003311D01*
X003601Y003270D01*
X003617Y003228D01*
X003629Y003184D01*
X003638Y003140D01*
X003643Y003095D01*
X003645Y003050D01*
X004067Y002716D02*
X005047Y002716D01*
X005087Y002558D02*
X003853Y002558D01*
X003436Y002558D02*
X002450Y002558D01*
X002510Y002399D02*
X005194Y002399D01*
X005430Y002399D02*
X005430Y002399D01*
X005488Y002558D02*
X005488Y002558D01*
X005546Y002716D02*
X005546Y002716D01*
X005683Y002716D02*
X005683Y002716D01*
X006037Y002558D02*
X008077Y002558D01*
X007749Y002399D02*
X005929Y002399D01*
X005498Y002241D02*
X007553Y002241D01*
X007333Y002082D02*
X005756Y002082D01*
X005232Y002241D02*
X001911Y002241D01*
X001873Y002247D02*
X005049Y002247D01*
X004974Y002082D02*
X002507Y002082D01*
X002443Y001924D02*
X004872Y001924D01*
X006076Y002716D02*
X013668Y002716D01*
X013895Y002875D02*
X006065Y002875D01*
X006995Y001717D02*
X007058Y001719D01*
X007120Y001725D01*
X007182Y001734D01*
X007244Y001747D01*
X007304Y001764D01*
X007364Y001785D01*
X007422Y001809D01*
X007478Y001836D01*
X007533Y001867D01*
X007586Y001901D01*
X007636Y001938D01*
X007685Y001979D01*
X007730Y002022D01*
X005844Y003192D02*
X013801Y003192D01*
X013787Y003202D02*
X013858Y003150D01*
X013935Y003111D01*
X014019Y003084D01*
X014105Y003070D01*
X014129Y003070D01*
X014129Y003605D01*
X014169Y003605D01*
X014169Y003645D01*
X014704Y003645D01*
X014704Y003669D01*
X014690Y003755D01*
X014663Y003838D01*
X014623Y003916D01*
X014572Y003986D01*
X014510Y004048D01*
X014439Y004100D01*
X014362Y004139D01*
X014278Y004166D01*
X014192Y004180D01*
X014169Y004180D01*
X014169Y003645D01*
X014129Y003645D01*
X014129Y004180D01*
X014105Y004180D01*
X014019Y004166D01*
X013935Y004139D01*
X013858Y004100D01*
X013787Y004048D01*
X013725Y003986D01*
X013674Y003916D01*
X013634Y003838D01*
X013607Y003755D01*
X013594Y003669D01*
X013594Y003645D01*
X014128Y003645D01*
X014128Y003605D01*
X013594Y003605D01*
X013594Y003581D01*
X013607Y003495D01*
X013634Y003412D01*
X013674Y003334D01*
X013725Y003263D01*
X013787Y003202D01*
X013666Y003350D02*
X006739Y003350D01*
X007310Y003509D02*
X013605Y003509D01*
X013594Y003667D02*
X007639Y003667D01*
X007839Y003826D02*
X013630Y003826D01*
X013723Y003984D02*
X008035Y003984D01*
X008161Y004143D02*
X013946Y004143D01*
X014129Y004143D02*
X014169Y004143D01*
X014351Y004143D02*
X016028Y004143D01*
X016061Y004097D02*
X016061Y004097D01*
X016216Y003984D02*
X014574Y003984D01*
X014667Y003826D02*
X017666Y003826D01*
X017635Y003667D02*
X014704Y003667D01*
X014704Y003605D02*
X014169Y003605D01*
X014169Y003070D01*
X014192Y003070D01*
X014278Y003084D01*
X014362Y003111D01*
X014439Y003150D01*
X014510Y003202D01*
X014572Y003263D01*
X014623Y003334D01*
X014663Y003412D01*
X014690Y003495D01*
X014704Y003581D01*
X014704Y003605D01*
X014692Y003509D02*
X017645Y003509D01*
X017695Y003350D02*
X014631Y003350D01*
X014496Y003192D02*
X017797Y003192D01*
X018252Y003192D02*
X018328Y003192D01*
X018328Y003350D02*
X018252Y003350D01*
X018252Y003509D02*
X018328Y003509D01*
X018290Y003625D02*
X014149Y003625D01*
X014129Y003667D02*
X014169Y003667D01*
X014169Y003509D02*
X014129Y003509D01*
X014129Y003350D02*
X014169Y003350D01*
X014169Y003192D02*
X014129Y003192D01*
X014129Y003826D02*
X014169Y003826D01*
X014169Y003984D02*
X014129Y003984D01*
X014444Y004460D02*
X014719Y004460D01*
X014600Y004618D02*
X014563Y004618D01*
X015082Y004853D02*
X015080Y004901D01*
X015075Y004949D01*
X015066Y004996D01*
X015053Y005042D01*
X015038Y005088D01*
X015018Y005132D01*
X014996Y005174D01*
X014970Y005215D01*
X014942Y005253D01*
X014911Y005290D01*
X014877Y005324D01*
X014840Y005355D01*
X014802Y005383D01*
X014761Y005409D01*
X014719Y005431D01*
X014675Y005451D01*
X014629Y005466D01*
X014583Y005479D01*
X014536Y005488D01*
X014488Y005493D01*
X014440Y005495D01*
X011039Y005495D01*
X012197Y005775D02*
X012263Y005842D01*
X012345Y006038D01*
X012345Y006251D01*
X012263Y006448D01*
X012113Y006598D01*
X011916Y006680D01*
X011870Y006680D01*
X011760Y006789D01*
X011566Y006870D01*
X018605Y006870D01*
X018411Y006789D01*
X018177Y006556D01*
X018051Y006251D01*
X018051Y005920D01*
X018152Y005676D01*
X017908Y005575D01*
X017718Y005385D01*
X017662Y005249D01*
X017623Y005325D01*
X017572Y005396D01*
X017510Y005458D01*
X017439Y005509D01*
X017362Y005549D01*
X017278Y005576D01*
X017192Y005589D01*
X017169Y005589D01*
X017169Y005054D01*
X017129Y005054D01*
X017129Y005589D01*
X017105Y005589D01*
X017019Y005576D01*
X016935Y005549D01*
X016858Y005509D01*
X016787Y005458D01*
X016725Y005396D01*
X016674Y005325D01*
X016634Y005247D01*
X016607Y005164D01*
X016594Y005078D01*
X016594Y005054D01*
X017128Y005054D01*
X017128Y005014D01*
X016594Y005014D01*
X016535Y005156D01*
X016385Y005307D01*
X016188Y005388D01*
X015975Y005388D01*
X015779Y005307D01*
X015628Y005156D01*
X015582Y005044D01*
X015535Y005156D01*
X015385Y005307D01*
X015192Y005387D01*
X015100Y005513D01*
X015100Y005513D01*
X015100Y005513D01*
X014949Y005623D01*
X015113Y005691D01*
X015263Y005842D01*
X015345Y006038D01*
X015345Y006251D01*
X015263Y006448D01*
X015113Y006598D01*
X014916Y006680D01*
X014704Y006680D01*
X014507Y006598D01*
X014356Y006448D01*
X014275Y006251D01*
X014275Y006038D01*
X014356Y005842D01*
X014423Y005775D01*
X012197Y005775D01*
X012282Y005886D02*
X014338Y005886D01*
X014275Y006045D02*
X012345Y006045D01*
X012345Y006203D02*
X014275Y006203D01*
X014321Y006362D02*
X012299Y006362D01*
X012191Y006520D02*
X014429Y006520D01*
X014701Y006679D02*
X011919Y006679D01*
X011760Y006789D02*
X011760Y006789D01*
X011645Y006837D02*
X018526Y006837D01*
X018300Y006679D02*
X017335Y006679D01*
X017328Y006683D02*
X017256Y006720D01*
X017179Y006745D01*
X017098Y006758D01*
X017058Y006758D01*
X017058Y006243D01*
X017573Y006243D01*
X017573Y006284D01*
X017560Y006364D01*
X017535Y006441D01*
X017498Y006513D01*
X017451Y006578D01*
X017393Y006636D01*
X017328Y006683D01*
X017058Y006679D02*
X017058Y006679D01*
X017058Y006758D02*
X017017Y006758D01*
X016937Y006745D01*
X016860Y006720D01*
X016788Y006683D01*
X016722Y006636D01*
X016665Y006578D01*
X016617Y006513D01*
X016581Y006441D01*
X016569Y006406D01*
X016512Y006546D01*
X016361Y006697D01*
X016164Y006778D01*
X015952Y006778D01*
X015755Y006697D01*
X015604Y006546D01*
X015523Y006349D01*
X015523Y006137D01*
X015604Y005940D01*
X015755Y005789D01*
X015952Y005708D01*
X016164Y005708D01*
X016361Y005789D01*
X016512Y005940D01*
X016569Y006080D01*
X016581Y006045D01*
X016617Y005973D01*
X016665Y005907D01*
X016722Y005850D01*
X016788Y005803D01*
X016860Y005766D01*
X016937Y005741D01*
X017017Y005728D01*
X017058Y005728D01*
X017098Y005728D01*
X017179Y005741D01*
X017256Y005766D01*
X017328Y005803D01*
X017393Y005850D01*
X017451Y005907D01*
X017498Y005973D01*
X017535Y006045D01*
X017560Y006122D01*
X017573Y006202D01*
X017573Y006243D01*
X017058Y006243D01*
X017058Y006243D01*
X017058Y006243D01*
X017058Y005728D01*
X017058Y006243D01*
X017058Y006243D01*
X017058Y006758D01*
X016781Y006679D02*
X016379Y006679D01*
X016522Y006520D02*
X016623Y006520D01*
X017058Y006520D02*
X017058Y006520D01*
X017058Y006362D02*
X017058Y006362D01*
X017058Y006203D02*
X017058Y006203D01*
X017058Y006045D02*
X017058Y006045D01*
X017058Y005886D02*
X017058Y005886D01*
X017429Y005886D02*
X018065Y005886D01*
X018051Y006045D02*
X017535Y006045D01*
X017573Y006203D02*
X018051Y006203D01*
X018097Y006362D02*
X017561Y006362D01*
X017493Y006520D02*
X018162Y006520D01*
X016687Y005886D02*
X016458Y005886D01*
X016555Y006045D02*
X016581Y006045D01*
X016211Y005728D02*
X018131Y005728D01*
X017902Y005569D02*
X017299Y005569D01*
X017169Y005569D02*
X017129Y005569D01*
X016998Y005569D02*
X015023Y005569D01*
X015174Y005411D02*
X016740Y005411D01*
X016637Y005252D02*
X016439Y005252D01*
X016561Y005094D02*
X016596Y005094D01*
X016617Y004875D02*
X016634Y004821D01*
X016674Y004743D01*
X016725Y004673D01*
X016787Y004611D01*
X016858Y004560D01*
X016935Y004520D01*
X017019Y004493D01*
X017105Y004479D01*
X017129Y004479D01*
X017129Y005014D01*
X017169Y005014D01*
X017169Y004479D01*
X017192Y004479D01*
X017278Y004493D01*
X017362Y004520D01*
X017439Y004560D01*
X017510Y004611D01*
X017572Y004673D01*
X017623Y004743D01*
X017647Y004791D01*
X017718Y004620D01*
X017793Y004546D01*
X017679Y004463D01*
X017499Y004404D01*
X017404Y004397D01*
X016715Y004397D01*
X016660Y004401D01*
X016555Y004436D01*
X016477Y004492D01*
X016535Y004550D01*
X016617Y004747D01*
X016617Y004875D01*
X016617Y004777D02*
X016657Y004777D01*
X016081Y004751D02*
X016083Y004704D01*
X016088Y004657D01*
X016097Y004610D01*
X016109Y004564D01*
X016125Y004519D01*
X016144Y004476D01*
X016166Y004434D01*
X016191Y004394D01*
X016219Y004356D01*
X016250Y004320D01*
X016284Y004286D01*
X016320Y004255D01*
X016358Y004227D01*
X016398Y004202D01*
X016440Y004180D01*
X016483Y004161D01*
X016528Y004145D01*
X016574Y004133D01*
X016621Y004124D01*
X016668Y004119D01*
X016715Y004117D01*
X017404Y004117D01*
X017669Y004460D02*
X016522Y004460D01*
X016563Y004618D02*
X016780Y004618D01*
X017129Y004618D02*
X017169Y004618D01*
X017169Y004777D02*
X017129Y004777D01*
X017517Y004618D02*
X017720Y004618D01*
X017653Y004777D02*
X017640Y004777D01*
X017169Y004935D02*
X017129Y004935D01*
X017404Y004117D02*
X017462Y004119D01*
X017520Y004125D01*
X017577Y004134D01*
X017633Y004147D01*
X017689Y004164D01*
X017743Y004184D01*
X017796Y004208D01*
X017847Y004236D01*
X017896Y004266D01*
X017943Y004300D01*
X017988Y004337D01*
X018030Y004377D01*
X018070Y004419D01*
X018107Y004464D01*
X018141Y004511D01*
X018171Y004560D01*
X018199Y004611D01*
X018223Y004664D01*
X018243Y004718D01*
X018260Y004774D01*
X018273Y004830D01*
X018282Y004887D01*
X018288Y004945D01*
X018290Y005003D01*
X017663Y005252D02*
X017660Y005252D01*
X017743Y005411D02*
X017557Y005411D01*
X017169Y005411D02*
X017129Y005411D01*
X017129Y005252D02*
X017169Y005252D01*
X017169Y005094D02*
X017129Y005094D01*
X016082Y004853D02*
X016082Y004751D01*
X015600Y004618D02*
X015563Y004618D01*
X015444Y004460D02*
X015719Y004460D01*
X015913Y004301D02*
X008288Y004301D01*
X008383Y004460D02*
X013719Y004460D01*
X014034Y004806D02*
X011264Y004806D01*
X010493Y004618D02*
X008460Y004618D01*
X009245Y005643D02*
X009193Y005693D01*
X009138Y005740D01*
X009081Y005784D01*
X009021Y005825D01*
X008959Y005862D01*
X008896Y005897D01*
X008831Y005928D01*
X008764Y005955D01*
X008696Y005980D01*
X008627Y006000D01*
X008557Y006017D01*
X008486Y006030D01*
X008414Y006039D01*
X008342Y006045D01*
X008270Y006047D01*
X008908Y005411D02*
X009081Y005411D01*
X009240Y005252D02*
X008843Y005252D01*
X008695Y005094D02*
X009464Y005094D01*
X009701Y004935D02*
X008580Y004935D01*
X009640Y006075D02*
X009583Y006129D01*
X009524Y006180D01*
X009463Y006227D01*
X009399Y006272D01*
X009333Y006314D01*
X009266Y006352D01*
X009196Y006388D01*
X009125Y006419D01*
X009052Y006447D01*
X008978Y006472D01*
X008903Y006492D01*
X008827Y006509D01*
X008750Y006523D01*
X008673Y006532D01*
X008595Y006538D01*
X008517Y006540D01*
X010219Y006625D02*
X011330Y006625D01*
X011372Y006623D01*
X011413Y006618D01*
X011454Y006609D01*
X011494Y006596D01*
X011533Y006580D01*
X011570Y006561D01*
X011605Y006538D01*
X011639Y006513D01*
X011669Y006484D01*
X011698Y006454D01*
X011723Y006420D01*
X011746Y006385D01*
X011765Y006348D01*
X011781Y006309D01*
X011794Y006269D01*
X011803Y006228D01*
X011808Y006187D01*
X011810Y006145D01*
X011039Y005495D02*
X010942Y005497D01*
X010845Y005505D01*
X010749Y005516D01*
X010653Y005533D01*
X010558Y005554D01*
X010465Y005580D01*
X010373Y005611D01*
X010282Y005646D01*
X010193Y005685D01*
X010107Y005729D01*
X010022Y005776D01*
X009940Y005828D01*
X009861Y005884D01*
X009784Y005944D01*
X009711Y006007D01*
X009640Y006074D01*
X009245Y005643D02*
X009340Y005551D01*
X009439Y005465D01*
X009543Y005383D01*
X009650Y005306D01*
X009761Y005234D01*
X009874Y005167D01*
X009991Y005105D01*
X010110Y005049D01*
X010232Y004999D01*
X010356Y004954D01*
X010482Y004915D01*
X010610Y004882D01*
X010739Y004855D01*
X010869Y004833D01*
X011000Y004818D01*
X011132Y004809D01*
X011264Y004806D01*
X010036Y004777D02*
X008536Y004777D01*
X008381Y005536D02*
X008379Y005445D01*
X008372Y005354D01*
X008362Y005264D01*
X008346Y005174D01*
X008327Y005085D01*
X008304Y004998D01*
X008276Y004911D01*
X008244Y004826D01*
X008208Y004742D01*
X008169Y004660D01*
X008125Y004581D01*
X008078Y004503D01*
X008027Y004428D01*
X007972Y004355D01*
X007914Y004285D01*
X007853Y004217D01*
X007789Y004153D01*
X007721Y004092D01*
X007651Y004034D01*
X007578Y003979D01*
X007503Y003928D01*
X007426Y003881D01*
X007346Y003837D01*
X007264Y003798D01*
X007180Y003762D01*
X007095Y003730D01*
X007008Y003702D01*
X006921Y003679D01*
X006832Y003660D01*
X006742Y003644D01*
X006652Y003634D01*
X006561Y003627D01*
X006470Y003625D01*
X005149Y003625D01*
X005719Y003192D02*
X005719Y003192D01*
X003222Y002716D02*
X002330Y002716D01*
X001911Y002716D02*
X001835Y002716D01*
X001835Y002558D02*
X001911Y002558D01*
X001911Y002399D02*
X001835Y002399D01*
X001296Y002558D02*
X000380Y002558D01*
X000380Y002716D02*
X001416Y002716D01*
X001236Y002399D02*
X000380Y002399D01*
X001873Y003625D02*
X003070Y003625D01*
X000666Y005411D02*
X000380Y005411D01*
X000380Y005569D02*
X000507Y005569D01*
X000414Y005728D02*
X000380Y005728D01*
X012205Y001290D02*
X014415Y001290D01*
X014315Y001131D02*
X012305Y001131D01*
X012345Y000973D02*
X014275Y000973D01*
X014278Y000814D02*
X012342Y000814D01*
X013383Y001937D02*
X013330Y001987D01*
X013275Y002035D01*
X013217Y002079D01*
X013157Y002120D01*
X013095Y002159D01*
X013031Y002193D01*
X012965Y002225D01*
X012898Y002253D01*
X012829Y002277D01*
X012759Y002298D01*
X012688Y002315D01*
X012617Y002328D01*
X012545Y002337D01*
X012472Y002343D01*
X012399Y002345D01*
X014810Y000952D02*
X014958Y001100D01*
X014810Y000952D02*
X014810Y000928D01*
X015345Y000973D02*
X015543Y000973D01*
X015543Y000967D02*
X016058Y000967D01*
X016058Y000452D01*
X016058Y000967D01*
X016058Y000967D01*
X015543Y000967D01*
X015566Y000814D02*
X015342Y000814D01*
X015276Y000656D02*
X015648Y000656D01*
X016058Y000656D02*
X016058Y000656D01*
X016058Y000814D02*
X016058Y000814D01*
X016058Y000967D02*
X016058Y000967D01*
X015570Y001131D02*
X015459Y001131D01*
X016468Y000656D02*
X016613Y000656D01*
X016796Y000497D02*
X016269Y000497D01*
X016058Y000497D02*
X016058Y000497D01*
X015847Y000497D02*
X015135Y000497D01*
X014484Y000497D02*
X012135Y000497D01*
X012276Y000656D02*
X014344Y000656D01*
X014959Y001100D02*
X015020Y001159D01*
X015084Y001214D01*
X015150Y001267D01*
X015219Y001316D01*
X015290Y001363D01*
X015363Y001405D01*
X015437Y001445D01*
X015514Y001481D01*
X015592Y001513D01*
X015672Y001542D01*
X015753Y001567D01*
X015835Y001588D01*
X015917Y001606D01*
X016001Y001619D01*
X016085Y001629D01*
X016169Y001635D01*
X016254Y001637D01*
X016570Y001637D01*
X016570Y001636D02*
X016615Y001638D01*
X016661Y001643D01*
X016705Y001652D01*
X016749Y001664D01*
X016792Y001680D01*
X016833Y001699D01*
X016873Y001721D01*
X016910Y001747D01*
X016946Y001775D01*
X016979Y001806D01*
X017010Y001839D01*
X017038Y001875D01*
X017064Y001912D01*
X017086Y001952D01*
X017105Y001993D01*
X017121Y002036D01*
X017133Y002080D01*
X017142Y002124D01*
X017147Y002170D01*
X017149Y002215D01*
X018290Y002200D02*
X018288Y002131D01*
X018282Y002062D01*
X018273Y001994D01*
X018259Y001926D01*
X018242Y001859D01*
X018221Y001793D01*
X018196Y001729D01*
X018168Y001665D01*
X018136Y001604D01*
X018101Y001545D01*
X018063Y001487D01*
X018021Y001432D01*
X017977Y001379D01*
X017929Y001329D01*
X017879Y001281D01*
X017826Y001237D01*
X017771Y001195D01*
X017713Y001157D01*
X017654Y001122D01*
X017593Y001090D01*
X017529Y001062D01*
X017465Y001037D01*
X017399Y001016D01*
X017332Y000999D01*
X017264Y000985D01*
X017196Y000976D01*
X017127Y000970D01*
X017058Y000968D01*
X017642Y000790D02*
X017642Y000790D01*
X017682Y000814D02*
X018128Y000814D01*
X018062Y000973D02*
X017957Y000973D01*
X017987Y000990D02*
X017987Y000990D01*
X018216Y000656D02*
X017503Y000656D01*
X017320Y000497D02*
X018374Y000497D01*
X019662Y001448D02*
X019665Y001448D01*
X019665Y001607D02*
X019596Y001607D01*
X019665Y001765D02*
X019454Y001765D01*
X019665Y001924D02*
X019216Y001924D01*
X018953Y002082D02*
X019665Y002082D01*
X019665Y002241D02*
X018965Y002241D01*
X018958Y002399D02*
X019665Y002399D01*
X019665Y002558D02*
X018892Y002558D01*
X018776Y002716D02*
X019665Y002716D01*
X019665Y002875D02*
X018539Y002875D01*
X018573Y003033D02*
X019665Y003033D01*
X019665Y003192D02*
X018783Y003192D01*
X018885Y003350D02*
X019665Y003350D01*
X019665Y003509D02*
X018936Y003509D01*
X018945Y003663D02*
X018945Y003668D01*
X018934Y003753D01*
X018912Y003836D01*
X018879Y003915D01*
X018836Y003990D01*
X018784Y004058D01*
X018723Y004118D01*
X018655Y004171D01*
X018581Y004214D01*
X018501Y004246D01*
X018418Y004269D01*
X018333Y004280D01*
X018328Y004280D01*
X018328Y003663D01*
X018945Y003663D01*
X018945Y003667D02*
X019665Y003667D01*
X019665Y003826D02*
X018915Y003826D01*
X018839Y003984D02*
X019665Y003984D01*
X019665Y004143D02*
X018692Y004143D01*
X018328Y004143D02*
X018252Y004143D01*
X018336Y004301D02*
X019665Y004301D01*
X019665Y004460D02*
X018702Y004460D01*
X018860Y004618D02*
X019665Y004618D01*
X019665Y004777D02*
X018927Y004777D01*
X018965Y004935D02*
X019665Y004935D01*
X019665Y005094D02*
X018965Y005094D01*
X018918Y005252D02*
X019665Y005252D01*
X019665Y005411D02*
X019379Y005411D01*
X019538Y005569D02*
X019665Y005569D01*
X019665Y005728D02*
X019631Y005728D01*
X015904Y005728D02*
X015149Y005728D01*
X015282Y005886D02*
X015658Y005886D01*
X015561Y006045D02*
X015345Y006045D01*
X015345Y006203D02*
X015523Y006203D01*
X015528Y006362D02*
X015299Y006362D01*
X015191Y006520D02*
X015594Y006520D01*
X015737Y006679D02*
X014919Y006679D01*
X015439Y005252D02*
X015724Y005252D01*
X015602Y005094D02*
X015561Y005094D01*
X014081Y004853D02*
X014079Y004841D01*
X014075Y004830D01*
X014067Y004820D01*
X014058Y004812D01*
X014046Y004808D01*
X014034Y004806D01*
X018252Y003984D02*
X018328Y003984D01*
X018328Y003826D02*
X018252Y003826D01*
X018252Y003667D02*
X018328Y003667D01*
X018328Y003033D02*
X018252Y003033D01*
X017805Y002716D02*
X017443Y002716D01*
X017620Y002558D02*
X017688Y002558D01*
X016854Y002716D02*
X016495Y002716D01*
X016584Y002558D02*
X016677Y002558D01*
X018290Y002247D02*
X018290Y002200D01*
M02*
