G75*
G70*
%OFA0B0*%
%FSLAX24Y24*%
%IPPOS*%
%LPD*%
%AMOC8*
5,1,8,0,0,1.08239X$1,22.5*
%
%ADD10C,0.0670*%
%ADD11C,0.0750*%
%ADD12C,0.0950*%
%ADD13C,0.0197*%
%ADD14C,0.0160*%
D10*
X003645Y001050D03*
X005365Y001717D03*
X008184Y000691D03*
X010219Y000625D03*
X011810Y000928D03*
X014810Y000928D03*
X016058Y000967D03*
X017058Y000967D03*
X016082Y002373D03*
X015082Y002373D03*
X014082Y002373D03*
X008381Y001734D03*
X005562Y002760D03*
X003645Y003050D03*
X003645Y004200D03*
X005562Y004509D03*
X005365Y005513D03*
X003645Y006200D03*
X008184Y006539D03*
X010219Y006625D03*
X011810Y006145D03*
X014810Y006145D03*
X016058Y006243D03*
X017058Y006243D03*
X016082Y004853D03*
X015082Y004853D03*
X014082Y004853D03*
X008381Y005536D03*
D11*
X005149Y003625D03*
X014149Y003625D03*
X017149Y005034D03*
X017149Y002215D03*
D12*
X018290Y002247D03*
X018290Y003625D03*
X018290Y005003D03*
X001873Y005003D03*
X001873Y003625D03*
X001873Y002247D03*
D13*
X016058Y000967D02*
X016058Y000956D01*
D14*
X001634Y000461D02*
X001440Y000380D01*
X007738Y000380D01*
X007730Y000388D01*
X007652Y000577D01*
X007570Y000599D01*
X007570Y000599D01*
X007207Y000808D01*
X007207Y000808D01*
X006911Y001105D01*
X006911Y001105D01*
X006701Y001468D01*
X006701Y001468D01*
X006593Y001872D01*
X006593Y004005D01*
X006582Y004166D01*
X006499Y004475D01*
X006339Y004753D01*
X006112Y004980D01*
X005835Y005140D01*
X005766Y005158D01*
X005668Y005060D01*
X005631Y005044D01*
X005668Y005044D01*
X005865Y004963D01*
X006015Y004813D01*
X006097Y004616D01*
X006097Y004403D01*
X006015Y004206D01*
X005865Y004056D01*
X005668Y003974D01*
X005612Y003974D01*
X005636Y003951D01*
X005724Y003739D01*
X005724Y003511D01*
X005636Y003299D01*
X005610Y003274D01*
X005682Y003262D01*
X005738Y003244D01*
X005562Y002760D01*
X006046Y002584D01*
X006064Y002639D01*
X006077Y002719D01*
X006077Y002800D01*
X006064Y002881D01*
X006039Y002958D01*
X006002Y003030D01*
X005955Y003095D01*
X005897Y003153D01*
X005832Y003200D01*
X005759Y003237D01*
X005738Y003244D01*
X005562Y002760D01*
X005562Y002760D01*
X005562Y002760D01*
X006046Y002584D01*
X006039Y002562D01*
X006002Y002490D01*
X005955Y002424D01*
X005897Y002367D01*
X005832Y002319D01*
X005759Y002283D01*
X005682Y002258D01*
X005602Y002245D01*
X005521Y002245D01*
X005441Y002258D01*
X005386Y002276D01*
X005562Y002760D01*
X005562Y002760D01*
X005562Y002760D01*
X005078Y002936D01*
X005059Y002881D01*
X005047Y002800D01*
X005047Y002719D01*
X005059Y002639D01*
X005085Y002562D01*
X005121Y002490D01*
X005169Y002424D01*
X005226Y002367D01*
X005292Y002319D01*
X005364Y002283D01*
X005386Y002276D01*
X005562Y002760D01*
X005078Y002936D01*
X005085Y002958D01*
X005121Y003030D01*
X005136Y003050D01*
X005034Y003050D01*
X004823Y003137D01*
X004661Y003299D01*
X004606Y003433D01*
X004572Y003330D01*
X004572Y003330D01*
X004381Y003066D01*
X004381Y003066D01*
X004381Y003066D01*
X004166Y002910D01*
X004098Y002747D01*
X003948Y002597D01*
X003751Y002515D01*
X003538Y002515D01*
X003342Y002597D01*
X003191Y002747D01*
X003110Y002944D01*
X003110Y003156D01*
X003191Y003353D01*
X003342Y003504D01*
X003538Y003585D01*
X003751Y003585D01*
X003948Y003504D01*
X003977Y003474D01*
X004062Y003590D01*
X004107Y003729D01*
X004113Y003802D01*
X004113Y003932D01*
X004098Y003897D01*
X003948Y003746D01*
X003751Y003665D01*
X003538Y003665D01*
X003342Y003746D01*
X003191Y003897D01*
X003110Y004093D01*
X003110Y004306D01*
X003191Y004503D01*
X003342Y004653D01*
X003538Y004735D01*
X003751Y004735D01*
X003948Y004653D01*
X004098Y004503D01*
X004113Y004468D01*
X004113Y005533D01*
X004209Y005831D01*
X004209Y005831D01*
X004393Y006085D01*
X004393Y006085D01*
X004393Y006085D01*
X004647Y006269D01*
X004647Y006269D01*
X004945Y006366D01*
X005377Y006366D01*
X005914Y006243D01*
X005914Y006243D01*
X006410Y006004D01*
X006410Y006004D01*
X006841Y005660D01*
X006841Y005660D01*
X006841Y005660D01*
X007185Y005229D01*
X007185Y005229D01*
X007424Y004733D01*
X007424Y004733D01*
X007547Y004196D01*
X007547Y002848D01*
X007557Y002718D01*
X007638Y002469D01*
X007791Y002258D01*
X007998Y002108D01*
X008078Y002187D01*
X008274Y002269D01*
X008487Y002269D01*
X008684Y002187D01*
X008834Y002037D01*
X008916Y001840D01*
X008916Y001627D01*
X008834Y001431D01*
X008684Y001280D01*
X008487Y001199D01*
X008355Y001199D01*
X008487Y001144D01*
X008638Y000994D01*
X008719Y000797D01*
X008719Y000584D01*
X008638Y000388D01*
X008630Y000380D01*
X009766Y000380D01*
X009742Y000427D01*
X009717Y000504D01*
X009704Y000584D01*
X009704Y000625D01*
X010219Y000625D01*
X010219Y000625D01*
X009704Y000625D01*
X009704Y000665D01*
X009717Y000745D01*
X009742Y000823D01*
X009779Y000895D01*
X009827Y000960D01*
X009884Y001018D01*
X009949Y001065D01*
X010022Y001102D01*
X010099Y001127D01*
X010179Y001140D01*
X010219Y001140D01*
X010219Y000625D01*
X010219Y000625D01*
X010219Y001140D01*
X010260Y001140D01*
X010340Y001127D01*
X010417Y001102D01*
X010489Y001065D01*
X010555Y001018D01*
X010612Y000960D01*
X010660Y000895D01*
X010697Y000823D01*
X010722Y000745D01*
X010734Y000665D01*
X010734Y000625D01*
X010219Y000625D01*
X010219Y000625D01*
X010734Y000625D01*
X010734Y000584D01*
X010722Y000504D01*
X010697Y000427D01*
X010673Y000380D01*
X018605Y000380D01*
X018411Y000461D01*
X018177Y000694D01*
X018051Y000999D01*
X018051Y001329D01*
X018152Y001574D01*
X017908Y001675D01*
X017718Y001865D01*
X017672Y001976D01*
X017636Y001890D01*
X017474Y001728D01*
X017263Y001640D01*
X017034Y001640D01*
X016823Y001728D01*
X016661Y001890D01*
X016574Y002101D01*
X016574Y002163D01*
X016535Y002070D01*
X016467Y002001D01*
X016518Y001913D01*
X016583Y001838D01*
X016928Y001493D01*
X016952Y001502D01*
X017164Y001502D01*
X017361Y001421D01*
X017512Y001270D01*
X017593Y001074D01*
X017593Y000861D01*
X017512Y000664D01*
X017361Y000514D01*
X017164Y000432D01*
X016952Y000432D01*
X016755Y000514D01*
X016604Y000664D01*
X016546Y000804D01*
X016535Y000770D01*
X016498Y000697D01*
X016451Y000632D01*
X016393Y000575D01*
X016328Y000527D01*
X016256Y000490D01*
X016179Y000465D01*
X016098Y000452D01*
X016058Y000452D01*
X016058Y000967D01*
X016058Y000967D01*
X016058Y000452D01*
X016017Y000452D01*
X015937Y000465D01*
X015860Y000490D01*
X015788Y000527D01*
X015722Y000575D01*
X015665Y000632D01*
X015617Y000697D01*
X015581Y000770D01*
X015556Y000847D01*
X015543Y000927D01*
X015543Y000967D01*
X016058Y000967D01*
X016058Y000967D01*
X015543Y000967D01*
X015543Y001008D01*
X015556Y001088D01*
X015581Y001165D01*
X015617Y001237D01*
X015665Y001303D01*
X015722Y001360D01*
X015788Y001408D01*
X015860Y001445D01*
X015937Y001470D01*
X016017Y001482D01*
X016058Y001482D01*
X016058Y000967D01*
X016058Y000967D01*
X016058Y001482D01*
X016098Y001482D01*
X016156Y001473D01*
X016148Y001482D01*
X016148Y001482D01*
X016065Y001565D01*
X016065Y001565D01*
X015891Y001865D01*
X015891Y001865D01*
X015889Y001874D01*
X015779Y001919D01*
X015628Y002070D01*
X015582Y002182D01*
X015535Y002070D01*
X015385Y001919D01*
X015188Y001838D01*
X014975Y001838D01*
X014779Y001919D01*
X014628Y002070D01*
X014582Y002182D01*
X014535Y002070D01*
X014385Y001919D01*
X014188Y001838D01*
X013975Y001838D01*
X013779Y001919D01*
X013628Y002070D01*
X013547Y002266D01*
X013547Y002315D01*
X013440Y002421D01*
X013440Y002421D01*
X013325Y002699D01*
X013325Y004480D01*
X013440Y004758D01*
X013440Y004758D01*
X013547Y004864D01*
X013547Y004960D01*
X013628Y005156D01*
X013779Y005307D01*
X013802Y005316D01*
X013802Y005576D01*
X013900Y005880D01*
X013900Y005880D01*
X014088Y006138D01*
X014088Y006138D01*
X014289Y006284D01*
X014356Y006448D01*
X014507Y006598D01*
X014704Y006680D01*
X014916Y006680D01*
X015113Y006598D01*
X015263Y006448D01*
X015345Y006251D01*
X015345Y006038D01*
X015263Y005842D01*
X015113Y005691D01*
X014916Y005610D01*
X014704Y005610D01*
X014507Y005691D01*
X014481Y005717D01*
X014410Y005620D01*
X014367Y005486D01*
X014362Y005416D01*
X014362Y005316D01*
X014385Y005307D01*
X014535Y005156D01*
X014582Y005044D01*
X014628Y005156D01*
X014779Y005307D01*
X014975Y005388D01*
X015188Y005388D01*
X015385Y005307D01*
X015535Y005156D01*
X015582Y005044D01*
X015628Y005156D01*
X015778Y005306D01*
X015778Y005780D01*
X015755Y005789D01*
X015604Y005940D01*
X015523Y006137D01*
X015523Y006349D01*
X015604Y006546D01*
X015755Y006697D01*
X015952Y006778D01*
X016164Y006778D01*
X016361Y006697D01*
X016512Y006546D01*
X016569Y006406D01*
X016581Y006441D01*
X016617Y006513D01*
X016665Y006578D01*
X016722Y006636D01*
X016788Y006683D01*
X016860Y006720D01*
X016937Y006745D01*
X017017Y006758D01*
X017058Y006758D01*
X017098Y006758D01*
X017179Y006745D01*
X017256Y006720D01*
X017328Y006683D01*
X017393Y006636D01*
X017451Y006578D01*
X017498Y006513D01*
X017535Y006441D01*
X017560Y006364D01*
X017573Y006284D01*
X017573Y006243D01*
X017058Y006243D01*
X017058Y006243D01*
X017573Y006243D01*
X017573Y006202D01*
X017560Y006122D01*
X017535Y006045D01*
X017498Y005973D01*
X017451Y005907D01*
X017393Y005850D01*
X017328Y005803D01*
X017256Y005766D01*
X017179Y005741D01*
X017098Y005728D01*
X017058Y005728D01*
X017058Y006243D01*
X017058Y006243D01*
X017058Y006758D01*
X017058Y006243D01*
X017058Y006243D01*
X017058Y005253D01*
X017129Y005252D02*
X017169Y005252D01*
X017058Y005253D02*
X017059Y005223D01*
X017064Y005193D01*
X017071Y005163D01*
X017082Y005135D01*
X017094Y005107D01*
X017110Y005081D01*
X017128Y005057D01*
X017149Y005035D01*
X017149Y005034D02*
X017149Y005023D01*
X017169Y005014D02*
X017169Y004479D01*
X017192Y004479D01*
X017278Y004493D01*
X017362Y004520D01*
X017439Y004560D01*
X017510Y004611D01*
X017572Y004673D01*
X017623Y004743D01*
X017647Y004791D01*
X017718Y004620D01*
X017908Y004431D01*
X018156Y004328D01*
X018425Y004328D01*
X018673Y004431D01*
X018862Y004620D01*
X018965Y004869D01*
X018965Y005137D01*
X018916Y005256D01*
X019046Y005256D01*
X019351Y005382D01*
X019584Y005615D01*
X019665Y005810D01*
X019665Y001440D01*
X019584Y001634D01*
X019351Y001868D01*
X019046Y001994D01*
X018916Y001994D01*
X018965Y002113D01*
X018965Y002381D01*
X018862Y002629D01*
X018673Y002819D01*
X018425Y002922D01*
X018156Y002922D01*
X017908Y002819D01*
X017718Y002629D01*
X017659Y002486D01*
X017636Y002541D01*
X017474Y002703D01*
X017263Y002790D01*
X017034Y002790D01*
X016823Y002703D01*
X016661Y002541D01*
X016617Y002434D01*
X016617Y002479D01*
X016535Y002676D01*
X016385Y002826D01*
X016188Y002908D01*
X015975Y002908D01*
X015779Y002826D01*
X015628Y002676D01*
X015582Y002564D01*
X015535Y002676D01*
X015385Y002826D01*
X015188Y002908D01*
X014975Y002908D01*
X014779Y002826D01*
X014628Y002676D01*
X014582Y002564D01*
X014535Y002676D01*
X014385Y002826D01*
X014188Y002908D01*
X013975Y002908D01*
X013885Y002871D01*
X013885Y003136D01*
X013935Y003111D01*
X014019Y003084D01*
X014105Y003070D01*
X014129Y003070D01*
X014129Y003605D01*
X014169Y003605D01*
X014169Y003645D01*
X014704Y003645D01*
X014704Y003669D01*
X014690Y003755D01*
X014663Y003838D01*
X014623Y003916D01*
X014572Y003986D01*
X014510Y004048D01*
X014439Y004100D01*
X014362Y004139D01*
X014278Y004166D01*
X014192Y004180D01*
X014169Y004180D01*
X014169Y003645D01*
X014129Y003645D01*
X014129Y004180D01*
X014105Y004180D01*
X014019Y004166D01*
X013935Y004139D01*
X013885Y004114D01*
X013885Y004330D01*
X013888Y004354D01*
X013975Y004318D01*
X014188Y004318D01*
X014385Y004400D01*
X014535Y004550D01*
X014582Y004662D01*
X014628Y004550D01*
X014779Y004400D01*
X014975Y004318D01*
X015188Y004318D01*
X015385Y004400D01*
X015535Y004550D01*
X015582Y004662D01*
X015628Y004550D01*
X015779Y004400D01*
X015975Y004318D01*
X016188Y004318D01*
X016385Y004400D01*
X016535Y004550D01*
X016617Y004747D01*
X016617Y004875D01*
X016634Y004821D01*
X016674Y004743D01*
X016725Y004673D01*
X016787Y004611D01*
X016858Y004560D01*
X016935Y004520D01*
X017019Y004493D01*
X017105Y004479D01*
X017129Y004479D01*
X017129Y005014D01*
X017169Y005014D01*
X017169Y005054D02*
X017129Y005054D01*
X017129Y005589D01*
X017105Y005589D01*
X017019Y005576D01*
X016935Y005549D01*
X016858Y005509D01*
X016787Y005458D01*
X016725Y005396D01*
X016674Y005325D01*
X016634Y005247D01*
X016607Y005164D01*
X016594Y005078D01*
X016594Y005054D01*
X017128Y005054D01*
X017128Y005014D01*
X016594Y005014D01*
X016535Y005156D01*
X016385Y005307D01*
X016338Y005326D01*
X016338Y005780D01*
X016361Y005789D01*
X016512Y005940D01*
X016569Y006080D01*
X016581Y006045D01*
X016617Y005973D01*
X016665Y005907D01*
X016722Y005850D01*
X016788Y005803D01*
X016860Y005766D01*
X016937Y005741D01*
X017017Y005728D01*
X017058Y005728D01*
X017058Y006243D01*
X017058Y006203D02*
X017058Y006203D01*
X017058Y006045D02*
X017058Y006045D01*
X017058Y005886D02*
X017058Y005886D01*
X017429Y005886D02*
X018065Y005886D01*
X018051Y005920D02*
X018152Y005676D01*
X017908Y005575D01*
X017718Y005385D01*
X017662Y005249D01*
X017623Y005325D01*
X017572Y005396D01*
X017510Y005458D01*
X017439Y005509D01*
X017362Y005549D01*
X017278Y005576D01*
X017192Y005589D01*
X017169Y005589D01*
X017169Y005054D01*
X017169Y005094D02*
X017129Y005094D01*
X017129Y004935D02*
X017169Y004935D01*
X017169Y004777D02*
X017129Y004777D01*
X017129Y004618D02*
X017169Y004618D01*
X017517Y004618D02*
X017720Y004618D01*
X017653Y004777D02*
X017640Y004777D01*
X017879Y004460D02*
X016444Y004460D01*
X016563Y004618D02*
X016780Y004618D01*
X016657Y004777D02*
X016617Y004777D01*
X016082Y004853D02*
X016072Y004865D01*
X016064Y004879D01*
X016060Y004894D01*
X016058Y004910D01*
X016058Y006243D01*
X016555Y006045D02*
X016581Y006045D01*
X016687Y005886D02*
X016458Y005886D01*
X016338Y005728D02*
X018131Y005728D01*
X018051Y005920D02*
X018051Y006251D01*
X018177Y006556D01*
X018411Y006789D01*
X018605Y006870D01*
X010697Y006870D01*
X010754Y006731D01*
X010754Y006518D01*
X010673Y006322D01*
X010522Y006171D01*
X010326Y006090D01*
X010113Y006090D01*
X009916Y006171D01*
X009766Y006322D01*
X009684Y006518D01*
X009684Y006731D01*
X009742Y006870D01*
X008610Y006870D01*
X008638Y006843D01*
X008719Y006646D01*
X008719Y006433D01*
X008638Y006236D01*
X008487Y006086D01*
X008450Y006071D01*
X008487Y006071D01*
X008684Y005989D01*
X008834Y005839D01*
X008916Y005642D01*
X008916Y005429D01*
X008900Y005390D01*
X011317Y002798D01*
X011498Y002617D01*
X011498Y002617D01*
X011788Y002183D01*
X011788Y002183D01*
X011988Y001701D01*
X011988Y001701D01*
X012046Y001409D01*
X012113Y001382D01*
X012263Y001231D01*
X012345Y001034D01*
X012345Y000822D01*
X012263Y000625D01*
X012113Y000474D01*
X011916Y000393D01*
X011704Y000393D01*
X011507Y000474D01*
X011356Y000625D01*
X011275Y000822D01*
X011275Y001034D01*
X011356Y001231D01*
X011476Y001351D01*
X011440Y001535D01*
X011283Y001913D01*
X011056Y002254D01*
X010926Y002397D01*
X010914Y002409D01*
X010878Y002445D01*
X010877Y002450D01*
X008494Y005003D01*
X008487Y005001D01*
X008274Y005001D01*
X008078Y005082D01*
X007927Y005232D01*
X007846Y005429D01*
X007846Y005642D01*
X007927Y005839D01*
X008078Y005989D01*
X008115Y006004D01*
X008078Y006004D01*
X007881Y006086D01*
X007730Y006236D01*
X007649Y006433D01*
X007649Y006646D01*
X007730Y006843D01*
X007758Y006870D01*
X001440Y006870D01*
X001634Y006789D01*
X001868Y006556D01*
X001994Y006251D01*
X001994Y005920D01*
X001894Y005678D01*
X002007Y005678D01*
X002255Y005575D01*
X002445Y005385D01*
X002548Y005137D01*
X002548Y004869D01*
X002445Y004620D01*
X002255Y004431D01*
X002007Y004328D01*
X001739Y004328D01*
X001491Y004431D01*
X001301Y004620D01*
X001198Y004869D01*
X001198Y005137D01*
X001247Y005256D01*
X000999Y005256D01*
X000694Y005382D01*
X000461Y005615D01*
X000380Y005810D01*
X000380Y001440D01*
X000461Y001634D01*
X000694Y001868D01*
X000999Y001994D01*
X001269Y001994D01*
X001251Y002036D01*
X001229Y002119D01*
X001218Y002204D01*
X001218Y002209D01*
X001835Y002209D01*
X001835Y002285D01*
X001835Y002902D01*
X001830Y002902D01*
X001745Y002891D01*
X001662Y002868D01*
X001583Y002836D01*
X001508Y002793D01*
X001440Y002740D01*
X001379Y002680D01*
X001327Y002612D01*
X001284Y002537D01*
X001251Y002458D01*
X001229Y002375D01*
X001218Y002290D01*
X001218Y002285D01*
X001835Y002285D01*
X001911Y002285D01*
X002528Y002285D01*
X002528Y002290D01*
X002517Y002375D01*
X002494Y002458D01*
X002462Y002537D01*
X002419Y002612D01*
X002366Y002680D01*
X002306Y002740D01*
X002238Y002793D01*
X002163Y002836D01*
X002084Y002868D01*
X002001Y002891D01*
X001916Y002902D01*
X001911Y002902D01*
X001911Y002285D01*
X001911Y002209D01*
X002528Y002209D01*
X002528Y002204D01*
X002517Y002119D01*
X002494Y002036D01*
X002462Y001957D01*
X002419Y001882D01*
X002366Y001814D01*
X002306Y001753D01*
X002238Y001701D01*
X002163Y001658D01*
X002084Y001625D01*
X002001Y001603D01*
X001916Y001592D01*
X001911Y001592D01*
X001911Y002209D01*
X001835Y002209D01*
X001835Y001667D01*
X001868Y001634D01*
X001994Y001329D01*
X001994Y000999D01*
X001868Y000694D01*
X001634Y000461D01*
X001671Y000497D02*
X007685Y000497D01*
X007472Y000656D02*
X004007Y000656D01*
X003948Y000597D02*
X004098Y000747D01*
X004180Y000944D01*
X004180Y001156D01*
X004098Y001353D01*
X003948Y001504D01*
X003751Y001585D01*
X003538Y001585D01*
X003342Y001504D01*
X003191Y001353D01*
X003110Y001156D01*
X003110Y000944D01*
X003191Y000747D01*
X003342Y000597D01*
X003538Y000515D01*
X003751Y000515D01*
X003948Y000597D01*
X004126Y000814D02*
X007202Y000814D01*
X007043Y000973D02*
X004180Y000973D01*
X004180Y001131D02*
X006896Y001131D01*
X006804Y001290D02*
X005694Y001290D01*
X005668Y001263D02*
X005818Y001414D01*
X005900Y001610D01*
X005900Y001823D01*
X005818Y002020D01*
X005668Y002170D01*
X005471Y002252D01*
X005259Y002252D01*
X005062Y002170D01*
X004911Y002020D01*
X004830Y001823D01*
X004830Y001610D01*
X004911Y001414D01*
X005062Y001263D01*
X005259Y001182D01*
X005471Y001182D01*
X005668Y001263D01*
X005833Y001448D02*
X006713Y001448D01*
X006664Y001607D02*
X005898Y001607D01*
X005900Y001765D02*
X006622Y001765D01*
X006593Y001924D02*
X005858Y001924D01*
X005756Y002082D02*
X006593Y002082D01*
X006593Y002241D02*
X005498Y002241D01*
X005232Y002241D02*
X001911Y002241D01*
X001835Y002241D02*
X000380Y002241D01*
X000380Y002082D02*
X001239Y002082D01*
X000829Y001924D02*
X000380Y001924D01*
X000380Y001765D02*
X000591Y001765D01*
X000449Y001607D02*
X000380Y001607D01*
X000380Y001448D02*
X000383Y001448D01*
X001835Y001765D02*
X001911Y001765D01*
X001911Y001607D02*
X001879Y001607D01*
X002014Y001607D02*
X004831Y001607D01*
X004830Y001765D02*
X002317Y001765D01*
X002443Y001924D02*
X004872Y001924D01*
X004974Y002082D02*
X002507Y002082D01*
X001911Y002082D02*
X001835Y002082D01*
X001835Y001924D02*
X001911Y001924D01*
X001911Y002399D02*
X001835Y002399D01*
X001835Y002558D02*
X001911Y002558D01*
X001911Y002716D02*
X001835Y002716D01*
X001835Y002875D02*
X001911Y002875D01*
X002007Y002950D02*
X001739Y002950D01*
X001491Y003053D01*
X001301Y003243D01*
X001198Y003491D01*
X001198Y003759D01*
X001301Y004007D01*
X001491Y004197D01*
X001739Y004300D01*
X002007Y004300D01*
X002255Y004197D01*
X002445Y004007D01*
X002548Y003759D01*
X002548Y003491D01*
X002445Y003243D01*
X002255Y003053D01*
X002007Y002950D01*
X002061Y002875D02*
X003138Y002875D01*
X003110Y003033D02*
X002208Y003033D01*
X002394Y003192D02*
X003124Y003192D01*
X003190Y003350D02*
X002490Y003350D01*
X002548Y003509D02*
X003353Y003509D01*
X003533Y003667D02*
X002548Y003667D01*
X002520Y003826D02*
X003262Y003826D01*
X003155Y003984D02*
X002455Y003984D01*
X002310Y004143D02*
X003110Y004143D01*
X003110Y004301D02*
X000380Y004301D01*
X000380Y004143D02*
X001436Y004143D01*
X001291Y003984D02*
X000380Y003984D01*
X000380Y003826D02*
X001225Y003826D01*
X001198Y003667D02*
X000380Y003667D01*
X000380Y003509D02*
X001198Y003509D01*
X001256Y003350D02*
X000380Y003350D01*
X000380Y003192D02*
X001352Y003192D01*
X001538Y003033D02*
X000380Y003033D01*
X000380Y002875D02*
X001684Y002875D01*
X001416Y002716D02*
X000380Y002716D01*
X000380Y002558D02*
X001296Y002558D01*
X001236Y002399D02*
X000380Y002399D01*
X002330Y002716D02*
X003222Y002716D01*
X003436Y002558D02*
X002450Y002558D01*
X002510Y002399D02*
X005194Y002399D01*
X005087Y002558D02*
X003853Y002558D01*
X004067Y002716D02*
X005047Y002716D01*
X005059Y002875D02*
X004151Y002875D01*
X004335Y003033D02*
X005124Y003033D01*
X005247Y002875D02*
X005247Y002875D01*
X005603Y002875D02*
X005603Y002875D01*
X005661Y003033D02*
X005661Y003033D01*
X006000Y003033D02*
X006593Y003033D01*
X006593Y002875D02*
X006065Y002875D01*
X006076Y002716D02*
X006593Y002716D01*
X006593Y002558D02*
X006037Y002558D01*
X005929Y002399D02*
X006593Y002399D01*
X005683Y002716D02*
X005683Y002716D01*
X005546Y002716D02*
X005546Y002716D01*
X005488Y002558D02*
X005488Y002558D01*
X005430Y002399D02*
X005430Y002399D01*
X006873Y002082D02*
X006873Y004005D01*
X006593Y003984D02*
X005691Y003984D01*
X005688Y003826D02*
X006593Y003826D01*
X006593Y003667D02*
X005724Y003667D01*
X005723Y003509D02*
X006593Y003509D01*
X006593Y003350D02*
X005657Y003350D01*
X005719Y003192D02*
X005719Y003192D01*
X005844Y003192D02*
X006593Y003192D01*
X007267Y002848D02*
X007267Y003920D01*
X007547Y003984D02*
X009445Y003984D01*
X009593Y003826D02*
X007547Y003826D01*
X007547Y003667D02*
X009741Y003667D01*
X009889Y003509D02*
X007547Y003509D01*
X007547Y003350D02*
X010037Y003350D01*
X010185Y003192D02*
X007547Y003192D01*
X007547Y003033D02*
X010332Y003033D01*
X010480Y002875D02*
X007547Y002875D01*
X007557Y002716D02*
X010628Y002716D01*
X010776Y002558D02*
X007609Y002558D01*
X007689Y002399D02*
X010924Y002399D01*
X011116Y002604D02*
X008381Y005536D01*
X007846Y005569D02*
X006914Y005569D01*
X007040Y005411D02*
X007854Y005411D01*
X007919Y005252D02*
X007167Y005252D01*
X007250Y005094D02*
X008066Y005094D01*
X008558Y004935D02*
X007327Y004935D01*
X007403Y004777D02*
X008706Y004777D01*
X008854Y004618D02*
X007450Y004618D01*
X007486Y004460D02*
X009002Y004460D01*
X009150Y004301D02*
X007523Y004301D01*
X007547Y004143D02*
X009297Y004143D01*
X009915Y004301D02*
X012585Y004301D01*
X012605Y004200D02*
X012617Y003957D01*
X012617Y002590D01*
X012751Y002088D01*
X013011Y001638D01*
X013155Y001494D01*
X013155Y001494D01*
X013490Y001160D01*
X013490Y001159D01*
X013568Y001081D01*
X013568Y001081D01*
X013666Y000983D01*
X013666Y000983D01*
X014003Y000788D01*
X014003Y000788D01*
X014324Y000702D01*
X014356Y000625D01*
X014507Y000474D01*
X014704Y000393D01*
X014916Y000393D01*
X015113Y000474D01*
X015263Y000625D01*
X015345Y000822D01*
X015345Y001034D01*
X015263Y001231D01*
X015113Y001382D01*
X014916Y001463D01*
X014704Y001463D01*
X014507Y001382D01*
X014396Y001271D01*
X014223Y001317D01*
X014015Y001437D01*
X013925Y001516D01*
X013886Y001555D01*
X013886Y001555D01*
X013590Y001851D01*
X013469Y001990D01*
X013284Y002309D01*
X013189Y002665D01*
X013177Y002850D01*
X013177Y004257D01*
X013060Y004844D01*
X012830Y005398D01*
X012497Y005897D01*
X012345Y006049D01*
X012345Y006251D01*
X012263Y006448D01*
X012113Y006598D01*
X011916Y006680D01*
X011704Y006680D01*
X011507Y006598D01*
X011356Y006448D01*
X011275Y006251D01*
X011275Y006038D01*
X011356Y005842D01*
X011507Y005691D01*
X011704Y005610D01*
X011916Y005610D01*
X011965Y005630D01*
X012053Y005532D01*
X012323Y005127D01*
X012510Y004678D01*
X012605Y004200D01*
X012607Y004143D02*
X010063Y004143D01*
X012088Y005911D02*
X012181Y005813D01*
X012270Y005710D01*
X012353Y005603D01*
X012431Y005492D01*
X012504Y005377D01*
X012571Y005259D01*
X012632Y005138D01*
X012687Y005014D01*
X012735Y004888D01*
X012778Y004759D01*
X012814Y004628D01*
X012844Y004496D01*
X012867Y004362D01*
X012884Y004228D01*
X012894Y004093D01*
X012897Y003957D01*
X012897Y002850D01*
X013177Y002875D02*
X013325Y002875D01*
X013605Y002849D02*
X013605Y004330D01*
X013325Y004301D02*
X013168Y004301D01*
X013177Y004143D02*
X013325Y004143D01*
X013325Y003984D02*
X013177Y003984D01*
X013177Y003826D02*
X013325Y003826D01*
X013325Y003667D02*
X013177Y003667D01*
X013177Y003509D02*
X013325Y003509D01*
X013325Y003350D02*
X013177Y003350D01*
X013177Y003192D02*
X013325Y003192D01*
X013325Y003033D02*
X013177Y003033D01*
X012617Y003033D02*
X011098Y003033D01*
X011246Y002875D02*
X012617Y002875D01*
X012617Y002716D02*
X011400Y002716D01*
X011538Y002558D02*
X012625Y002558D01*
X012668Y002399D02*
X011644Y002399D01*
X011750Y002241D02*
X012710Y002241D01*
X012751Y002088D02*
X012751Y002088D01*
X012755Y002082D02*
X011830Y002082D01*
X011896Y001924D02*
X012846Y001924D01*
X012938Y001765D02*
X011962Y001765D01*
X012007Y001607D02*
X013043Y001607D01*
X013011Y001638D02*
X013011Y001638D01*
X013393Y001653D02*
X013727Y001318D01*
X014003Y001448D02*
X014667Y001448D01*
X014953Y001448D02*
X015871Y001448D01*
X016058Y001448D02*
X016058Y001448D01*
X016058Y001290D02*
X016058Y001290D01*
X016058Y001131D02*
X016058Y001131D01*
X016058Y000973D02*
X016058Y000973D01*
X016058Y000814D02*
X016058Y000814D01*
X016058Y000656D02*
X016058Y000656D01*
X016468Y000656D02*
X016613Y000656D01*
X016796Y000497D02*
X016269Y000497D01*
X016058Y000497D02*
X016058Y000497D01*
X015847Y000497D02*
X015135Y000497D01*
X015276Y000656D02*
X015648Y000656D01*
X015566Y000814D02*
X015342Y000814D01*
X015345Y000973D02*
X015543Y000973D01*
X015570Y001131D02*
X015305Y001131D01*
X015205Y001290D02*
X015655Y001290D01*
X016040Y001607D02*
X013835Y001607D01*
X013676Y001765D02*
X015949Y001765D01*
X015774Y001924D02*
X015389Y001924D01*
X015540Y002082D02*
X015623Y002082D01*
X014774Y001924D02*
X014389Y001924D01*
X014540Y002082D02*
X014623Y002082D01*
X014574Y000968D02*
X014507Y000970D01*
X014440Y000976D01*
X014373Y000985D01*
X014308Y000998D01*
X014243Y001015D01*
X014179Y001035D01*
X014116Y001059D01*
X014055Y001087D01*
X013995Y001117D01*
X013937Y001151D01*
X013881Y001189D01*
X013828Y001229D01*
X013776Y001272D01*
X013728Y001319D01*
X013360Y001290D02*
X012205Y001290D01*
X012305Y001131D02*
X013518Y001131D01*
X013684Y000973D02*
X012345Y000973D01*
X012342Y000814D02*
X013958Y000814D01*
X014344Y000656D02*
X012276Y000656D01*
X012135Y000497D02*
X014484Y000497D01*
X014715Y000967D02*
X014736Y000965D01*
X014756Y000960D01*
X014776Y000952D01*
X014794Y000941D01*
X014810Y000928D01*
X014715Y000967D02*
X014574Y000967D01*
X014415Y001290D02*
X014326Y001290D01*
X013201Y001448D02*
X012038Y001448D01*
X011457Y001448D02*
X008842Y001448D01*
X008693Y001290D02*
X011415Y001290D01*
X011315Y001131D02*
X010316Y001131D01*
X010219Y001131D02*
X010219Y001131D01*
X010123Y001131D02*
X008500Y001131D01*
X008646Y000973D02*
X009839Y000973D01*
X010219Y000973D02*
X010219Y000973D01*
X010219Y000814D02*
X010219Y000814D01*
X010219Y000656D02*
X010219Y000656D01*
X009739Y000814D02*
X008712Y000814D01*
X008719Y000656D02*
X009704Y000656D01*
X009719Y000497D02*
X008683Y000497D01*
X008184Y000691D02*
X008184Y000771D01*
X011116Y002604D02*
X011196Y002520D01*
X011272Y002432D01*
X011344Y002340D01*
X011411Y002245D01*
X011473Y002146D01*
X011530Y002045D01*
X011582Y001941D01*
X011630Y001835D01*
X011671Y001726D01*
X011708Y001616D01*
X011739Y001504D01*
X011764Y001390D01*
X011784Y001276D01*
X011799Y001160D01*
X011807Y001044D01*
X011810Y000928D01*
X011275Y000973D02*
X010600Y000973D01*
X010699Y000814D02*
X011278Y000814D01*
X011344Y000656D02*
X010734Y000656D01*
X010719Y000497D02*
X011484Y000497D01*
X011410Y001607D02*
X008907Y001607D01*
X008916Y001765D02*
X011345Y001765D01*
X011276Y001924D02*
X008881Y001924D01*
X008789Y002082D02*
X011170Y002082D01*
X011064Y002241D02*
X008556Y002241D01*
X008206Y002241D02*
X007815Y002241D01*
X006873Y002082D02*
X006875Y002011D01*
X006881Y001940D01*
X006890Y001870D01*
X006904Y001800D01*
X006921Y001731D01*
X006942Y001663D01*
X006966Y001597D01*
X006994Y001532D01*
X007026Y001468D01*
X007061Y001406D01*
X007099Y001346D01*
X007140Y001289D01*
X007185Y001233D01*
X007232Y001180D01*
X007282Y001130D01*
X007335Y001083D01*
X007391Y001038D01*
X007448Y000997D01*
X007508Y000959D01*
X007570Y000924D01*
X007634Y000892D01*
X007699Y000864D01*
X007765Y000840D01*
X007833Y000819D01*
X007902Y000802D01*
X007972Y000788D01*
X008042Y000779D01*
X008113Y000773D01*
X008184Y000771D01*
X005035Y001290D02*
X004124Y001290D01*
X004003Y001448D02*
X004897Y001448D01*
X003286Y001448D02*
X001945Y001448D01*
X001994Y001290D02*
X003165Y001290D01*
X003110Y001131D02*
X001994Y001131D01*
X001983Y000973D02*
X003110Y000973D01*
X003163Y000814D02*
X001917Y000814D01*
X001829Y000656D02*
X003283Y000656D01*
X007267Y002848D02*
X007269Y002783D01*
X007275Y002719D01*
X007284Y002655D01*
X007297Y002591D01*
X007314Y002529D01*
X007334Y002467D01*
X007358Y002407D01*
X007385Y002348D01*
X007416Y002291D01*
X007450Y002236D01*
X007487Y002183D01*
X007528Y002132D01*
X007571Y002084D01*
X007617Y002038D01*
X007665Y001995D01*
X007716Y001954D01*
X007769Y001917D01*
X007824Y001883D01*
X007881Y001852D01*
X007940Y001825D01*
X008000Y001801D01*
X008062Y001781D01*
X008124Y001764D01*
X008188Y001751D01*
X008252Y001742D01*
X008316Y001736D01*
X008381Y001734D01*
X010950Y003192D02*
X012617Y003192D01*
X012617Y003350D02*
X010803Y003350D01*
X010655Y003509D02*
X012617Y003509D01*
X012617Y003667D02*
X010507Y003667D01*
X010359Y003826D02*
X012617Y003826D01*
X012615Y003984D02*
X010211Y003984D01*
X009768Y004460D02*
X012553Y004460D01*
X012521Y004618D02*
X009620Y004618D01*
X009472Y004777D02*
X012469Y004777D01*
X012403Y004935D02*
X009324Y004935D01*
X009176Y005094D02*
X012337Y005094D01*
X012240Y005252D02*
X009028Y005252D01*
X008908Y005411D02*
X012134Y005411D01*
X012019Y005569D02*
X008916Y005569D01*
X008880Y005728D02*
X011470Y005728D01*
X011338Y005886D02*
X008787Y005886D01*
X008550Y006045D02*
X011275Y006045D01*
X011275Y006203D02*
X010554Y006203D01*
X010689Y006362D02*
X011321Y006362D01*
X011429Y006520D02*
X010754Y006520D01*
X010754Y006679D02*
X011701Y006679D01*
X011919Y006679D02*
X014701Y006679D01*
X014919Y006679D02*
X015737Y006679D01*
X015594Y006520D02*
X015191Y006520D01*
X015299Y006362D02*
X015528Y006362D01*
X015523Y006203D02*
X015345Y006203D01*
X015345Y006045D02*
X015561Y006045D01*
X015658Y005886D02*
X015282Y005886D01*
X015149Y005728D02*
X015778Y005728D01*
X015778Y005569D02*
X014394Y005569D01*
X014362Y005411D02*
X015778Y005411D01*
X015724Y005252D02*
X015439Y005252D01*
X015561Y005094D02*
X015602Y005094D01*
X016338Y005411D02*
X016740Y005411D01*
X016637Y005252D02*
X016439Y005252D01*
X016561Y005094D02*
X016596Y005094D01*
X017129Y005411D02*
X017169Y005411D01*
X017169Y005569D02*
X017129Y005569D01*
X016998Y005569D02*
X016338Y005569D01*
X017299Y005569D02*
X017902Y005569D01*
X017743Y005411D02*
X017557Y005411D01*
X017660Y005252D02*
X017663Y005252D01*
X018918Y005252D02*
X019665Y005252D01*
X019665Y005094D02*
X018965Y005094D01*
X018965Y004935D02*
X019665Y004935D01*
X019665Y004777D02*
X018927Y004777D01*
X018860Y004618D02*
X019665Y004618D01*
X019665Y004460D02*
X018702Y004460D01*
X018418Y004269D02*
X018333Y004280D01*
X018328Y004280D01*
X018328Y003663D01*
X018252Y003663D01*
X018252Y003587D01*
X017635Y003587D01*
X017635Y003582D01*
X017646Y003497D01*
X017669Y003414D01*
X017702Y003335D01*
X017744Y003260D01*
X017797Y003192D01*
X017857Y003131D01*
X017926Y003079D01*
X018000Y003036D01*
X018079Y003003D01*
X018162Y002981D01*
X018247Y002970D01*
X018252Y002970D01*
X018252Y003587D01*
X018328Y003587D01*
X018328Y002970D01*
X018333Y002970D01*
X018418Y002981D01*
X018501Y003003D01*
X018581Y003036D01*
X018655Y003079D01*
X018723Y003131D01*
X018784Y003192D01*
X018836Y003260D01*
X018879Y003335D01*
X018912Y003414D01*
X018934Y003497D01*
X018945Y003582D01*
X018945Y003587D01*
X018328Y003587D01*
X018328Y003663D01*
X018945Y003663D01*
X018945Y003668D01*
X018934Y003753D01*
X018912Y003836D01*
X018879Y003915D01*
X018836Y003990D01*
X018784Y004058D01*
X018723Y004118D01*
X018655Y004171D01*
X018581Y004214D01*
X018501Y004246D01*
X018418Y004269D01*
X018328Y004143D02*
X018252Y004143D01*
X018247Y004280D02*
X018162Y004269D01*
X018079Y004246D01*
X018000Y004214D01*
X017926Y004171D01*
X017857Y004118D01*
X017797Y004058D01*
X017744Y003990D01*
X017702Y003915D01*
X017669Y003836D01*
X017646Y003753D01*
X017635Y003668D01*
X017635Y003663D01*
X018252Y003663D01*
X018252Y004280D01*
X018247Y004280D01*
X017889Y004143D02*
X014351Y004143D01*
X014169Y004143D02*
X014129Y004143D01*
X013946Y004143D02*
X013885Y004143D01*
X013885Y004301D02*
X019665Y004301D01*
X019665Y004143D02*
X018692Y004143D01*
X018839Y003984D02*
X019665Y003984D01*
X019665Y003826D02*
X018915Y003826D01*
X018945Y003667D02*
X019665Y003667D01*
X019665Y003509D02*
X018936Y003509D01*
X018885Y003350D02*
X019665Y003350D01*
X019665Y003192D02*
X018783Y003192D01*
X018328Y003192D02*
X018252Y003192D01*
X018252Y003350D02*
X018328Y003350D01*
X018328Y003509D02*
X018252Y003509D01*
X018290Y003605D02*
X018290Y003625D01*
X018252Y003667D02*
X018328Y003667D01*
X018328Y003826D02*
X018252Y003826D01*
X018252Y003984D02*
X018328Y003984D01*
X017741Y003984D02*
X014574Y003984D01*
X014667Y003826D02*
X017666Y003826D01*
X017635Y003667D02*
X014704Y003667D01*
X014704Y003605D02*
X014169Y003605D01*
X014169Y003070D01*
X014192Y003070D01*
X014278Y003084D01*
X014362Y003111D01*
X014439Y003150D01*
X014510Y003202D01*
X014572Y003263D01*
X014623Y003334D01*
X014663Y003412D01*
X014690Y003495D01*
X014704Y003581D01*
X014704Y003605D01*
X014692Y003509D02*
X017645Y003509D01*
X017695Y003350D02*
X014631Y003350D01*
X014496Y003192D02*
X017797Y003192D01*
X017670Y002975D02*
X017670Y000928D01*
X017593Y000973D02*
X018062Y000973D01*
X018051Y001131D02*
X017569Y001131D01*
X017492Y001290D02*
X018051Y001290D01*
X018100Y001448D02*
X017296Y001448D01*
X016815Y001607D02*
X018073Y001607D01*
X017818Y001765D02*
X017511Y001765D01*
X017650Y001924D02*
X017694Y001924D01*
X016786Y001765D02*
X016656Y001765D01*
X016647Y001924D02*
X016512Y001924D01*
X016540Y002082D02*
X016581Y002082D01*
X016385Y001640D02*
X016343Y001686D01*
X016302Y001734D01*
X016265Y001784D01*
X016231Y001837D01*
X016201Y001892D01*
X016173Y001948D01*
X016149Y002006D01*
X016129Y002065D01*
X016112Y002125D01*
X016099Y002186D01*
X016090Y002248D01*
X016084Y002310D01*
X016082Y002373D01*
X016584Y002558D02*
X016677Y002558D01*
X016854Y002716D02*
X016495Y002716D01*
X016269Y002875D02*
X018041Y002875D01*
X018008Y003033D02*
X013885Y003033D01*
X013885Y002875D02*
X013895Y002875D01*
X013606Y002849D02*
X013608Y002808D01*
X013613Y002766D01*
X013622Y002726D01*
X013635Y002686D01*
X013651Y002648D01*
X013670Y002611D01*
X013692Y002576D01*
X013717Y002543D01*
X013745Y002512D01*
X013776Y002484D01*
X013809Y002459D01*
X013844Y002437D01*
X013881Y002418D01*
X013919Y002402D01*
X013959Y002389D01*
X013999Y002380D01*
X014041Y002375D01*
X014082Y002373D01*
X013557Y002241D02*
X013324Y002241D01*
X013415Y002082D02*
X013623Y002082D01*
X013526Y001924D02*
X013774Y001924D01*
X013462Y002399D02*
X013260Y002399D01*
X013218Y002558D02*
X013384Y002558D01*
X013325Y002716D02*
X013185Y002716D01*
X014269Y002875D02*
X014895Y002875D01*
X014668Y002716D02*
X014495Y002716D01*
X013393Y001653D02*
X013339Y001709D01*
X013288Y001768D01*
X013239Y001830D01*
X013193Y001893D01*
X013151Y001959D01*
X013111Y002026D01*
X013074Y002095D01*
X013041Y002166D01*
X013011Y002238D01*
X012985Y002312D01*
X012962Y002387D01*
X012942Y002462D01*
X012926Y002539D01*
X012913Y002616D01*
X012904Y002694D01*
X012899Y002772D01*
X012897Y002850D01*
X014129Y003192D02*
X014169Y003192D01*
X014169Y003350D02*
X014129Y003350D01*
X014129Y003509D02*
X014169Y003509D01*
X014169Y003667D02*
X014129Y003667D01*
X014129Y003826D02*
X014169Y003826D01*
X014169Y003984D02*
X014129Y003984D01*
X013606Y004330D02*
X013608Y004371D01*
X013613Y004413D01*
X013622Y004453D01*
X013635Y004493D01*
X013651Y004531D01*
X013670Y004568D01*
X013692Y004603D01*
X013717Y004636D01*
X013745Y004667D01*
X013776Y004695D01*
X013809Y004720D01*
X013844Y004742D01*
X013881Y004761D01*
X013919Y004777D01*
X013959Y004790D01*
X013999Y004799D01*
X014041Y004804D01*
X014082Y004806D01*
X014082Y004853D01*
X014082Y005416D01*
X013802Y005411D02*
X012822Y005411D01*
X012830Y005398D02*
X012830Y005398D01*
X012891Y005252D02*
X013724Y005252D01*
X013602Y005094D02*
X012956Y005094D01*
X013022Y004935D02*
X013547Y004935D01*
X013060Y004844D02*
X013060Y004844D01*
X013073Y004777D02*
X013459Y004777D01*
X013382Y004618D02*
X013105Y004618D01*
X013136Y004460D02*
X013325Y004460D01*
X014444Y004460D02*
X014719Y004460D01*
X014600Y004618D02*
X014563Y004618D01*
X015444Y004460D02*
X015719Y004460D01*
X015600Y004618D02*
X015563Y004618D01*
X014602Y005094D02*
X014561Y005094D01*
X014439Y005252D02*
X014724Y005252D01*
X014082Y005416D02*
X014084Y005468D01*
X014089Y005520D01*
X014099Y005571D01*
X014111Y005621D01*
X014128Y005670D01*
X014148Y005718D01*
X014171Y005765D01*
X014198Y005810D01*
X014227Y005852D01*
X014260Y005893D01*
X014295Y005931D01*
X014333Y005966D01*
X014374Y005999D01*
X014416Y006028D01*
X014461Y006055D01*
X014508Y006078D01*
X014556Y006098D01*
X014605Y006115D01*
X014655Y006127D01*
X014706Y006137D01*
X014758Y006142D01*
X014810Y006144D01*
X014321Y006362D02*
X012299Y006362D01*
X012345Y006203D02*
X014177Y006203D01*
X014020Y006045D02*
X012349Y006045D01*
X012497Y005897D02*
X012497Y005897D01*
X012504Y005886D02*
X013905Y005886D01*
X013851Y005728D02*
X012610Y005728D01*
X012087Y005911D02*
X011884Y006114D01*
X011872Y006125D01*
X011858Y006134D01*
X011842Y006140D01*
X011826Y006144D01*
X011810Y006145D01*
X012191Y006520D02*
X014429Y006520D01*
X016379Y006679D02*
X016781Y006679D01*
X017058Y006679D02*
X017058Y006679D01*
X017335Y006679D02*
X018300Y006679D01*
X018526Y006837D02*
X010711Y006837D01*
X009728Y006837D02*
X008640Y006837D01*
X008706Y006679D02*
X009684Y006679D01*
X009684Y006520D02*
X008719Y006520D01*
X008689Y006362D02*
X009749Y006362D01*
X009885Y006203D02*
X008604Y006203D01*
X007981Y006045D02*
X006326Y006045D01*
X006558Y005886D02*
X007975Y005886D01*
X007881Y005728D02*
X006757Y005728D01*
X005997Y006203D02*
X007764Y006203D01*
X007679Y006362D02*
X005394Y006362D01*
X004932Y006362D02*
X004157Y006362D01*
X004180Y006306D02*
X004098Y006503D01*
X003948Y006653D01*
X003751Y006735D01*
X003538Y006735D01*
X003342Y006653D01*
X003191Y006503D01*
X003110Y006306D01*
X003110Y006093D01*
X003191Y005897D01*
X003342Y005746D01*
X003538Y005665D01*
X003751Y005665D01*
X003948Y005746D01*
X004098Y005897D01*
X004180Y006093D01*
X004180Y006306D01*
X004180Y006203D02*
X004556Y006203D01*
X004364Y006045D02*
X004159Y006045D01*
X004087Y005886D02*
X004249Y005886D01*
X004176Y005728D02*
X003903Y005728D01*
X004124Y005569D02*
X002261Y005569D01*
X002420Y005411D02*
X004113Y005411D01*
X004393Y005377D02*
X004393Y003802D01*
X004113Y003826D02*
X004027Y003826D01*
X004087Y003667D02*
X003757Y003667D01*
X003645Y003054D02*
X003698Y003056D01*
X003751Y003062D01*
X003804Y003071D01*
X003856Y003084D01*
X003906Y003101D01*
X003956Y003122D01*
X004003Y003145D01*
X004049Y003173D01*
X004093Y003203D01*
X004135Y003237D01*
X004174Y003273D01*
X004210Y003312D01*
X004244Y003354D01*
X004274Y003398D01*
X004302Y003444D01*
X004325Y003491D01*
X004346Y003541D01*
X004363Y003591D01*
X004376Y003643D01*
X004385Y003696D01*
X004391Y003749D01*
X004393Y003802D01*
X004003Y003509D02*
X003936Y003509D01*
X004579Y003350D02*
X004640Y003350D01*
X004769Y003192D02*
X004472Y003192D01*
X003645Y003054D02*
X003645Y003050D01*
X005101Y006085D02*
X005204Y006083D01*
X005307Y006075D01*
X005409Y006063D01*
X005511Y006046D01*
X005611Y006024D01*
X005711Y005997D01*
X005809Y005966D01*
X005906Y005930D01*
X006000Y005889D01*
X006093Y005844D01*
X006184Y005795D01*
X006271Y005741D01*
X006357Y005684D01*
X006439Y005622D01*
X006519Y005556D01*
X006595Y005487D01*
X006668Y005414D01*
X006737Y005338D01*
X006803Y005258D01*
X006865Y005176D01*
X006922Y005090D01*
X006976Y005003D01*
X007025Y004912D01*
X007070Y004819D01*
X007111Y004725D01*
X007147Y004628D01*
X007178Y004530D01*
X007205Y004430D01*
X007227Y004330D01*
X007244Y004228D01*
X007256Y004126D01*
X007264Y004023D01*
X007266Y003920D01*
X006584Y004143D02*
X005951Y004143D01*
X006055Y004301D02*
X006546Y004301D01*
X006504Y004460D02*
X006097Y004460D01*
X006096Y004618D02*
X006417Y004618D01*
X006316Y004777D02*
X006030Y004777D01*
X006157Y004935D02*
X005893Y004935D01*
X005915Y005094D02*
X005702Y005094D01*
X005101Y006086D02*
X005050Y006084D01*
X005000Y006079D01*
X004950Y006070D01*
X004901Y006057D01*
X004853Y006041D01*
X004806Y006022D01*
X004761Y005999D01*
X004718Y005973D01*
X004676Y005945D01*
X004637Y005913D01*
X004600Y005878D01*
X004565Y005841D01*
X004533Y005802D01*
X004505Y005760D01*
X004479Y005717D01*
X004456Y005672D01*
X004437Y005625D01*
X004421Y005577D01*
X004408Y005528D01*
X004399Y005478D01*
X004394Y005428D01*
X004392Y005377D01*
X004113Y005252D02*
X002500Y005252D01*
X002548Y005094D02*
X004113Y005094D01*
X004113Y004935D02*
X002548Y004935D01*
X002510Y004777D02*
X004113Y004777D01*
X004113Y004618D02*
X003983Y004618D01*
X003306Y004618D02*
X002443Y004618D01*
X002284Y004460D02*
X003173Y004460D01*
X001462Y004460D02*
X000380Y004460D01*
X000380Y004618D02*
X001303Y004618D01*
X001236Y004777D02*
X000380Y004777D01*
X000380Y004935D02*
X001198Y004935D01*
X001198Y005094D02*
X000380Y005094D01*
X000380Y005252D02*
X001246Y005252D01*
X000666Y005411D02*
X000380Y005411D01*
X000380Y005569D02*
X000507Y005569D01*
X000414Y005728D02*
X000380Y005728D01*
X001914Y005728D02*
X003386Y005728D01*
X003202Y005886D02*
X001980Y005886D01*
X001994Y006045D02*
X003130Y006045D01*
X003110Y006203D02*
X001994Y006203D01*
X001948Y006362D02*
X003133Y006362D01*
X003208Y006520D02*
X001883Y006520D01*
X001745Y006679D02*
X003403Y006679D01*
X003887Y006679D02*
X007663Y006679D01*
X007728Y006837D02*
X001519Y006837D01*
X004081Y006520D02*
X007649Y006520D01*
X012716Y005569D02*
X013802Y005569D01*
X016522Y006520D02*
X016623Y006520D01*
X017058Y006520D02*
X017058Y006520D01*
X017058Y006362D02*
X017058Y006362D01*
X017493Y006520D02*
X018162Y006520D01*
X018097Y006362D02*
X017561Y006362D01*
X017573Y006203D02*
X018051Y006203D01*
X018051Y006045D02*
X017535Y006045D01*
X019379Y005411D02*
X019665Y005411D01*
X019665Y005569D02*
X019538Y005569D01*
X019631Y005728D02*
X019665Y005728D01*
X019665Y003033D02*
X018573Y003033D01*
X018328Y003033D02*
X018252Y003033D01*
X018539Y002875D02*
X019665Y002875D01*
X019665Y002716D02*
X018776Y002716D01*
X018892Y002558D02*
X019665Y002558D01*
X019665Y002399D02*
X018958Y002399D01*
X018965Y002241D02*
X019665Y002241D01*
X019665Y002082D02*
X018953Y002082D01*
X019216Y001924D02*
X019665Y001924D01*
X019665Y001765D02*
X019454Y001765D01*
X019596Y001607D02*
X019665Y001607D01*
X019662Y001448D02*
X019665Y001448D01*
X018128Y000814D02*
X017573Y000814D01*
X017503Y000656D02*
X018216Y000656D01*
X018374Y000497D02*
X017320Y000497D01*
X017109Y000377D02*
X016649Y000377D01*
X017109Y000377D02*
X017155Y000379D01*
X017201Y000384D01*
X017246Y000393D01*
X017290Y000406D01*
X017333Y000422D01*
X017374Y000442D01*
X017414Y000465D01*
X017452Y000491D01*
X017487Y000521D01*
X017520Y000553D01*
X017550Y000588D01*
X017577Y000625D01*
X017601Y000664D01*
X017621Y000705D01*
X017638Y000748D01*
X017652Y000792D01*
X017662Y000837D01*
X017668Y000882D01*
X017670Y000928D01*
X017058Y000967D02*
X016385Y001640D01*
X017620Y002558D02*
X017688Y002558D01*
X017805Y002716D02*
X017443Y002716D01*
X015895Y002875D02*
X015269Y002875D01*
X015495Y002716D02*
X015668Y002716D01*
X006873Y004005D02*
X006871Y004081D01*
X006865Y004158D01*
X006856Y004233D01*
X006842Y004309D01*
X006825Y004383D01*
X006804Y004456D01*
X006779Y004529D01*
X006751Y004600D01*
X006719Y004669D01*
X006684Y004737D01*
X006645Y004803D01*
X006603Y004866D01*
X006557Y004928D01*
X006509Y004987D01*
X006458Y005044D01*
X006404Y005098D01*
X006347Y005149D01*
X006288Y005197D01*
X006226Y005243D01*
X006163Y005285D01*
X006097Y005324D01*
X006029Y005359D01*
X005960Y005391D01*
X005889Y005419D01*
X005816Y005444D01*
X005743Y005465D01*
X005669Y005482D01*
X005593Y005496D01*
X005518Y005505D01*
X005441Y005511D01*
X005365Y005513D01*
M02*
