G75*
G70*
%OFA0B0*%
%FSLAX24Y24*%
%IPPOS*%
%LPD*%
%AMOC8*
5,1,8,0,0,1.08239X$1,22.5*
%
%ADD10C,0.0670*%
%ADD11C,0.0750*%
%ADD12C,0.0950*%
%ADD13C,0.0160*%
%ADD14C,0.0060*%
D10*
X003565Y000970D03*
X005415Y000584D03*
X006966Y000730D03*
X005415Y001584D03*
X008301Y001654D03*
X009966Y000730D03*
X010927Y000545D03*
X012320Y000848D03*
X015320Y000848D03*
X016687Y001084D03*
X017687Y001084D03*
X016002Y002293D03*
X015002Y002293D03*
X014002Y002293D03*
X014002Y004773D03*
X015002Y004773D03*
X016002Y004773D03*
X016687Y006045D03*
X017687Y006045D03*
X015320Y006065D03*
X012320Y006065D03*
X010927Y006545D03*
X009966Y006340D03*
X008301Y005456D03*
X006966Y006340D03*
X005415Y006506D03*
X003565Y006120D03*
X005415Y005506D03*
X005482Y004429D03*
X003565Y004120D03*
X003565Y002970D03*
X005482Y002680D03*
D11*
X005462Y003545D03*
X014462Y003545D03*
X017069Y002135D03*
X017069Y004954D03*
D12*
X018210Y004923D03*
X018210Y003545D03*
X018210Y002167D03*
X001793Y002167D03*
X001793Y003545D03*
X001793Y004923D03*
D13*
X003446Y004238D02*
X003565Y004120D01*
X004734Y004120D01*
X005482Y002680D02*
X005423Y002624D01*
X005362Y002571D01*
X005299Y002521D01*
X005233Y002474D01*
X005165Y002429D01*
X005096Y002388D01*
X005024Y002351D01*
X004951Y002316D01*
X004876Y002285D01*
X004800Y002258D01*
X004722Y002234D01*
X004644Y002214D01*
X004565Y002197D01*
X004485Y002184D01*
X004405Y002174D01*
X004324Y002169D01*
X004243Y002167D01*
X001793Y002167D01*
X003446Y004238D02*
X003363Y004317D01*
X003276Y004392D01*
X003186Y004463D01*
X003092Y004529D01*
X002995Y004590D01*
X002895Y004647D01*
X002793Y004699D01*
X002688Y004745D01*
X002581Y004786D01*
X002472Y004822D01*
X002361Y004853D01*
X002249Y004878D01*
X002136Y004898D01*
X002022Y004912D01*
X001908Y004920D01*
X001793Y004923D01*
X004734Y004119D02*
X004798Y004121D01*
X004862Y004127D01*
X004925Y004136D01*
X004987Y004150D01*
X005049Y004167D01*
X005109Y004188D01*
X005168Y004212D01*
X005226Y004240D01*
X005281Y004272D01*
X005335Y004306D01*
X005386Y004344D01*
X005436Y004385D01*
X005482Y004429D01*
X005903Y003726D02*
X005867Y003693D01*
X005828Y003663D01*
X005788Y003636D01*
X005745Y003612D01*
X005700Y003591D01*
X005655Y003574D01*
X005607Y003561D01*
X005559Y003552D01*
X005511Y003546D01*
X005462Y003544D01*
X005902Y003727D02*
X007178Y005003D01*
X008292Y005464D02*
X008301Y005456D01*
X007472Y006301D02*
X006990Y006301D01*
X005752Y006833D02*
X005718Y006831D01*
X005684Y006826D01*
X005651Y006817D01*
X005619Y006805D01*
X005589Y006789D01*
X005560Y006771D01*
X005533Y006749D01*
X005509Y006725D01*
X005487Y006698D01*
X005469Y006670D01*
X005453Y006639D01*
X005441Y006607D01*
X005432Y006574D01*
X005427Y006540D01*
X005425Y006506D01*
X005415Y006506D01*
X005752Y006832D02*
X009474Y006832D01*
X009517Y006830D01*
X009559Y006825D01*
X009601Y006815D01*
X009642Y006802D01*
X009682Y006786D01*
X009720Y006766D01*
X009756Y006743D01*
X009790Y006717D01*
X009822Y006688D01*
X009851Y006656D01*
X009877Y006622D01*
X009900Y006586D01*
X009920Y006548D01*
X009936Y006508D01*
X009949Y006467D01*
X009959Y006425D01*
X009964Y006383D01*
X009966Y006340D01*
X010002Y006340D01*
X010927Y006545D02*
X011840Y006545D01*
X011036Y004825D02*
X010930Y004828D01*
X010824Y004835D01*
X010718Y004848D01*
X010614Y004867D01*
X010510Y004890D01*
X010408Y004918D01*
X010307Y004952D01*
X010207Y004990D01*
X010110Y005033D01*
X010015Y005081D01*
X009923Y005133D01*
X009833Y005190D01*
X009746Y005251D01*
X009663Y005316D01*
X009582Y005386D01*
X009505Y005459D01*
X011036Y004824D02*
X013878Y004824D01*
X013878Y004825D02*
X013901Y004824D01*
X013923Y004819D01*
X013945Y004812D01*
X013966Y004802D01*
X013985Y004789D01*
X014002Y004774D01*
X013452Y005415D02*
X012235Y005415D01*
X012374Y002680D02*
X012510Y002683D01*
X012646Y002693D01*
X012782Y002708D01*
X012917Y002730D01*
X013050Y002758D01*
X013182Y002793D01*
X013312Y002833D01*
X013441Y002879D01*
X013567Y002932D01*
X013690Y002990D01*
X013811Y003053D01*
X013929Y003122D01*
X014043Y003197D01*
X014154Y003276D01*
X014261Y003361D01*
X014363Y003451D01*
X014462Y003545D01*
X015001Y004773D02*
X014928Y004843D01*
X014852Y004910D01*
X014772Y004972D01*
X014690Y005032D01*
X014605Y005087D01*
X014518Y005138D01*
X014429Y005185D01*
X014337Y005228D01*
X014243Y005267D01*
X014148Y005301D01*
X014052Y005331D01*
X013954Y005357D01*
X013855Y005378D01*
X013755Y005394D01*
X013654Y005406D01*
X013553Y005413D01*
X013452Y005415D01*
X012320Y006065D02*
X012318Y006107D01*
X012313Y006148D01*
X012304Y006189D01*
X012291Y006229D01*
X012275Y006268D01*
X012256Y006305D01*
X012233Y006340D01*
X012208Y006374D01*
X012179Y006404D01*
X012149Y006433D01*
X012115Y006458D01*
X012080Y006481D01*
X012043Y006500D01*
X012004Y006516D01*
X011964Y006529D01*
X011923Y006538D01*
X011882Y006543D01*
X011840Y006545D01*
X012235Y005415D02*
X012089Y005418D01*
X011944Y005428D01*
X011799Y005445D01*
X011655Y005469D01*
X011512Y005499D01*
X011370Y005536D01*
X011231Y005579D01*
X011094Y005628D01*
X010959Y005684D01*
X010827Y005746D01*
X010698Y005814D01*
X010572Y005888D01*
X010450Y005968D01*
X010331Y006053D01*
X010217Y006144D01*
X010107Y006239D01*
X010001Y006340D01*
X004483Y006120D02*
X003565Y006120D01*
X004483Y006120D02*
X004552Y006122D01*
X004621Y006127D01*
X004689Y006136D01*
X004757Y006149D01*
X004824Y006165D01*
X004890Y006184D01*
X004955Y006207D01*
X005019Y006234D01*
X005081Y006264D01*
X005142Y006296D01*
X005200Y006332D01*
X005257Y006372D01*
X005312Y006413D01*
X005364Y006458D01*
X005414Y006506D01*
X007178Y005002D02*
X007234Y005056D01*
X007292Y005106D01*
X007353Y005154D01*
X007416Y005198D01*
X007482Y005240D01*
X007549Y005278D01*
X007618Y005313D01*
X007689Y005344D01*
X007761Y005372D01*
X007835Y005396D01*
X007909Y005417D01*
X007985Y005434D01*
X008061Y005447D01*
X008138Y005456D01*
X008215Y005462D01*
X008292Y005464D01*
X013291Y001478D02*
X013391Y001480D01*
X013490Y001487D01*
X013590Y001499D01*
X013688Y001515D01*
X013786Y001535D01*
X013882Y001560D01*
X013978Y001590D01*
X014072Y001624D01*
X014164Y001662D01*
X014254Y001705D01*
X014343Y001751D01*
X014429Y001802D01*
X014512Y001856D01*
X014593Y001914D01*
X014672Y001976D01*
X014747Y002042D01*
X014819Y002111D01*
X014820Y002111D02*
X015002Y002293D01*
X016279Y000296D02*
X016353Y000298D01*
X016426Y000303D01*
X016499Y000312D01*
X016571Y000325D01*
X016643Y000341D01*
X016714Y000361D01*
X016784Y000384D01*
X016852Y000410D01*
X016919Y000440D01*
X016985Y000473D01*
X017049Y000509D01*
X017111Y000548D01*
X017171Y000591D01*
X017229Y000636D01*
X017285Y000684D01*
X017338Y000735D01*
X017687Y001084D01*
X017002Y002069D02*
X016944Y002067D01*
X016887Y002061D01*
X016830Y002052D01*
X016773Y002039D01*
X016718Y002022D01*
X016664Y002002D01*
X016611Y001978D01*
X016560Y001951D01*
X016511Y001920D01*
X016464Y001886D01*
X016419Y001850D01*
X016377Y001810D01*
X015482Y000915D01*
X015481Y000915D02*
X015462Y000898D01*
X015441Y000883D01*
X015419Y000871D01*
X015395Y000861D01*
X015371Y000854D01*
X015346Y000849D01*
X015320Y000848D01*
X016279Y000297D02*
X011526Y000297D01*
X010161Y001478D02*
X010100Y001476D01*
X010040Y001471D01*
X009980Y001462D01*
X009921Y001449D01*
X009862Y001433D01*
X009805Y001413D01*
X009749Y001390D01*
X009694Y001363D01*
X009642Y001333D01*
X009591Y001300D01*
X009542Y001264D01*
X009495Y001226D01*
X009451Y001184D01*
X010161Y001478D02*
X013291Y001478D01*
X011526Y000297D02*
X011471Y000299D01*
X011415Y000304D01*
X011361Y000313D01*
X011307Y000326D01*
X011254Y000342D01*
X011202Y000361D01*
X011151Y000384D01*
X011102Y000410D01*
X011055Y000440D01*
X011010Y000472D01*
X010968Y000507D01*
X010927Y000545D01*
X008356Y000730D02*
X006966Y000730D01*
X006964Y000707D01*
X006959Y000685D01*
X006950Y000664D01*
X006938Y000644D01*
X006923Y000627D01*
X006906Y000612D01*
X006886Y000600D01*
X006865Y000591D01*
X006843Y000586D01*
X006820Y000584D01*
X005415Y000584D01*
X005413Y000566D01*
X005408Y000549D01*
X005400Y000533D01*
X005388Y000520D01*
X005375Y000508D01*
X005359Y000500D01*
X005342Y000495D01*
X005324Y000493D01*
X005324Y000494D02*
X004041Y000494D01*
X004000Y000496D01*
X003958Y000501D01*
X003918Y000510D01*
X003878Y000523D01*
X003840Y000539D01*
X003803Y000558D01*
X003768Y000580D01*
X003735Y000605D01*
X003704Y000633D01*
X003676Y000664D01*
X003651Y000697D01*
X003629Y000732D01*
X003610Y000769D01*
X003594Y000807D01*
X003581Y000847D01*
X003572Y000887D01*
X003567Y000929D01*
X003565Y000970D01*
X003565Y002970D02*
X003495Y003036D01*
X003422Y003099D01*
X003346Y003159D01*
X003268Y003214D01*
X003186Y003266D01*
X003102Y003313D01*
X003016Y003357D01*
X002928Y003396D01*
X002838Y003430D01*
X002747Y003460D01*
X002654Y003486D01*
X002560Y003507D01*
X002465Y003524D01*
X002369Y003536D01*
X002273Y003543D01*
X002177Y003545D01*
X001793Y003545D01*
X005482Y002680D02*
X012374Y002680D01*
X009452Y001184D02*
X009397Y001132D01*
X009339Y001082D01*
X009279Y001035D01*
X009217Y000991D01*
X009153Y000951D01*
X009087Y000913D01*
X009019Y000879D01*
X008949Y000848D01*
X008878Y000821D01*
X008806Y000797D01*
X008733Y000776D01*
X008658Y000760D01*
X008583Y000747D01*
X008508Y000737D01*
X008432Y000732D01*
X008356Y000730D01*
X009505Y005458D02*
X009409Y005550D01*
X009309Y005637D01*
X009205Y005719D01*
X009097Y005797D01*
X008985Y005869D01*
X008871Y005937D01*
X008753Y005999D01*
X008633Y006055D01*
X008511Y006106D01*
X008386Y006151D01*
X008259Y006190D01*
X008130Y006224D01*
X008000Y006251D01*
X007869Y006272D01*
X007737Y006288D01*
X007605Y006297D01*
X007472Y006300D01*
X016002Y004773D02*
X016002Y004671D01*
X017057Y004234D02*
X017065Y004234D01*
X017844Y004556D02*
X018210Y004923D01*
X018210Y005112D01*
X018208Y005172D01*
X018203Y005231D01*
X018194Y005290D01*
X018181Y005348D01*
X018165Y005406D01*
X018146Y005462D01*
X018123Y005517D01*
X018097Y005571D01*
X018068Y005623D01*
X018035Y005673D01*
X018000Y005721D01*
X017962Y005767D01*
X017921Y005811D01*
X017687Y006045D01*
X017057Y004234D02*
X016984Y004236D01*
X016911Y004241D01*
X016838Y004250D01*
X016766Y004263D01*
X016694Y004279D01*
X016624Y004298D01*
X016554Y004321D01*
X016486Y004348D01*
X016419Y004377D01*
X016354Y004410D01*
X016290Y004446D01*
X016228Y004485D01*
X016168Y004528D01*
X016110Y004573D01*
X016055Y004621D01*
X016002Y004671D01*
X017065Y004234D02*
X017127Y004236D01*
X017188Y004241D01*
X017249Y004250D01*
X017310Y004262D01*
X017370Y004277D01*
X017428Y004296D01*
X017486Y004318D01*
X017542Y004343D01*
X017597Y004371D01*
X017650Y004403D01*
X017702Y004437D01*
X017751Y004474D01*
X017798Y004514D01*
X017843Y004556D01*
X018210Y002167D02*
X018200Y002157D01*
X017747Y001969D02*
X016986Y001208D01*
X016959Y001183D01*
X016930Y001160D01*
X016898Y001141D01*
X016866Y001124D01*
X016832Y001110D01*
X016796Y001098D01*
X016760Y001090D01*
X016724Y001086D01*
X016687Y001084D01*
X017746Y001970D02*
X017780Y002001D01*
X017815Y002030D01*
X017853Y002056D01*
X017892Y002079D01*
X017933Y002100D01*
X017976Y002118D01*
X018019Y002132D01*
X018064Y002143D01*
X018109Y002151D01*
X018154Y002156D01*
X018200Y002158D01*
X017069Y002135D02*
X017002Y002069D01*
D14*
X014002Y004773D02*
X013978Y004824D01*
X006990Y006301D02*
X006966Y006340D01*
M02*
