%
M48
M72
T01C0.0320
T02C0.0400
T03C0.0472
%
T01
X3645Y1050
X5365Y1717
X8184Y691
X10219Y625
X11810Y928
X14810Y928
X16058Y967
X17058Y967
X16082Y2373
X15082Y2373
X14082Y2373
X8381Y1734
X5562Y2760
X3645Y3050
X3645Y4200
X5562Y4509
X5365Y5513
X3645Y6200
X8184Y6539
X10219Y6625
X11810Y6145
X14810Y6145
X16058Y6243
X17058Y6243
X16082Y4853
X15082Y4853
X14082Y4853
X8381Y5536
T02
X5149Y3625
X14149Y3625
X17149Y5034
X17149Y2215
T03
X18290Y2247
X18290Y3625
X18290Y5003
X1873Y5003
X1873Y3625
X1873Y2247
M30
