G75*
G70*
%OFA0B0*%
%FSLAX24Y24*%
%IPPOS*%
%LPD*%
%AMOC8*
5,1,8,0,0,1.08239X$1,22.5*
%
%ADD10C,0.0060*%
%ADD11C,0.0120*%
%ADD12C,0.0100*%
%ADD13C,0.0300*%
%ADD14R,0.0200X0.1200*%
%ADD15R,0.0350X0.0300*%
%ADD16C,0.0070*%
D10*
X006149Y002025D02*
X006649Y002025D01*
X006649Y002175D01*
X006649Y005125D01*
X006999Y005125D01*
X006999Y005225D01*
X007049Y005275D01*
X013099Y005275D01*
X013149Y005225D01*
X013149Y002025D01*
X012999Y001875D01*
X007149Y001875D01*
X006999Y002025D01*
X013149Y002025D01*
X012949Y003625D02*
X008199Y003625D01*
X007649Y003625D02*
X007199Y003625D01*
X007349Y003425D02*
X007349Y003125D01*
X007199Y003275D02*
X007499Y003275D01*
X007649Y003025D02*
X007649Y003625D01*
X007649Y004225D01*
X007849Y004225D01*
X007849Y003025D01*
X007649Y003025D01*
X006999Y002175D02*
X006649Y002175D01*
X006999Y002175D02*
X006999Y005125D01*
X006649Y005125D02*
X006649Y005225D01*
X006999Y005225D01*
X007049Y005275D02*
X007149Y005375D01*
X012999Y005375D01*
X013099Y005275D01*
X006649Y005225D02*
X006599Y005275D01*
X006499Y005375D01*
X006299Y005375D01*
X006199Y005275D01*
X006599Y005275D01*
X006199Y005275D02*
X006149Y005225D01*
X006149Y002025D01*
X006299Y001875D01*
X006499Y001875D01*
X006649Y002025D01*
X006999Y002025D01*
X006999Y002175D01*
D11*
X006949Y002125D02*
X006699Y002125D01*
X006699Y002075D02*
X006949Y002075D01*
X007099Y001975D02*
X013049Y001975D01*
X012999Y001925D02*
X007149Y001925D01*
X006549Y001975D02*
X006249Y001975D01*
X006299Y001925D02*
X006499Y001925D01*
D12*
X006699Y005175D02*
X006949Y005175D01*
X007149Y005325D02*
X012999Y005325D01*
X006499Y005325D02*
X006299Y005325D01*
D13*
X005799Y003625D02*
X005149Y003625D01*
X013499Y003625D02*
X014149Y003625D01*
D14*
X008149Y003625D03*
D15*
X005974Y003625D03*
X013324Y003625D03*
D16*
X012844Y004127D02*
X012450Y004127D01*
X012647Y004127D02*
X012647Y004717D01*
X012844Y004520D01*
X012236Y004619D02*
X012138Y004717D01*
X011941Y004717D01*
X011843Y004619D01*
X012236Y004225D01*
X012138Y004127D01*
X011941Y004127D01*
X011843Y004225D01*
X011843Y004619D01*
X011629Y004619D02*
X011530Y004717D01*
X011333Y004717D01*
X011235Y004619D01*
X011629Y004225D01*
X011530Y004127D01*
X011333Y004127D01*
X011235Y004225D01*
X011235Y004619D01*
X011629Y004619D02*
X011629Y004225D01*
X012236Y004225D02*
X012236Y004619D01*
X010923Y004422D02*
X010923Y004225D01*
X010923Y004028D01*
X011021Y003930D01*
X010824Y004127D02*
X010726Y004127D01*
X010627Y004225D01*
X010627Y004422D01*
X010824Y004127D02*
X010923Y004225D01*
M02*
