G75*
G70*
%OFA0B0*%
%FSLAX24Y24*%
%IPPOS*%
%LPD*%
%AMOC8*
5,1,8,0,0,1.08239X$1,22.5*
%
%ADD10C,0.0050*%
%ADD11C,0.0240*%
%ADD12C,0.0060*%
%ADD13R,0.0100X0.0240*%
%ADD14C,0.0120*%
%ADD15C,0.0200*%
%ADD16R,0.1000X0.0200*%
%ADD17R,0.0200X0.0300*%
%ADD18C,0.0070*%
%ADD19R,0.0787X0.0300*%
%ADD20R,0.0320X0.0220*%
D10*
X003182Y001480D02*
X003257Y001405D01*
X003182Y001480D02*
X003031Y001480D01*
X003106Y001555D01*
X003106Y001630D01*
X003031Y001705D01*
X002881Y001705D01*
X002881Y001865D02*
X002881Y002165D01*
X002656Y002090D02*
X002881Y001865D01*
X003106Y002090D02*
X002656Y002090D01*
X002656Y002325D02*
X002656Y002626D01*
X002731Y002626D01*
X003031Y002325D01*
X003106Y002325D01*
X001121Y002289D02*
X001121Y002199D01*
X001076Y002154D01*
X001076Y002064D01*
X001121Y002064D01*
X000986Y002064D02*
X000986Y002154D01*
X000941Y002199D01*
X000941Y002289D01*
X000986Y002334D01*
X001076Y002334D01*
X001121Y002289D01*
X000826Y002289D02*
X000781Y002334D01*
X000691Y002334D01*
X000646Y002289D01*
X000646Y002109D01*
X000691Y002064D01*
X000781Y002064D01*
X000826Y002109D01*
X000826Y002199D01*
X000736Y002199D01*
X000441Y002334D02*
X000441Y002064D01*
X000351Y002064D02*
X000532Y002064D01*
X000351Y002244D02*
X000441Y002334D01*
X000941Y002064D02*
X000986Y002064D01*
X002881Y001480D02*
X003031Y001480D01*
X006030Y001335D02*
X006030Y001218D01*
X006089Y001160D01*
X006322Y001160D01*
X006089Y001394D01*
X006322Y001394D01*
X006381Y001335D01*
X006381Y001218D01*
X006322Y001160D01*
X006089Y001025D02*
X006322Y000792D01*
X006381Y000792D01*
X006205Y000657D02*
X006205Y000423D01*
X006030Y000599D01*
X006381Y000599D01*
X006030Y000792D02*
X006030Y001025D01*
X006089Y001025D01*
X006030Y001335D02*
X006089Y001394D01*
X006147Y001528D02*
X006147Y001703D01*
X006205Y001762D01*
X006322Y001762D01*
X006381Y001703D01*
X006381Y001528D01*
X006497Y001528D02*
X006147Y001528D01*
X006946Y001979D02*
X006822Y002149D01*
X007026Y002198D01*
X007170Y002208D02*
X007245Y002243D01*
X007354Y002203D01*
X007389Y002128D01*
X007369Y002073D01*
X007070Y001934D01*
X007289Y001854D01*
X006782Y002039D02*
X006901Y002368D01*
X006755Y002359D02*
X006735Y002304D01*
X006435Y002165D01*
X006655Y002085D01*
X006755Y002359D02*
X006720Y002434D01*
X006610Y002474D01*
X006535Y002439D01*
X007906Y000916D02*
X007906Y000565D01*
X007790Y000565D02*
X008023Y000565D01*
X008158Y000624D02*
X008391Y000857D01*
X008391Y000624D01*
X008333Y000565D01*
X008216Y000565D01*
X008158Y000624D01*
X008158Y000857D01*
X008216Y000916D01*
X008333Y000916D01*
X008391Y000857D01*
X008526Y000857D02*
X008585Y000916D01*
X008701Y000916D01*
X008760Y000857D01*
X008526Y000624D01*
X008585Y000565D01*
X008701Y000565D01*
X008760Y000624D01*
X008760Y000857D01*
X008895Y000916D02*
X008895Y000565D01*
X008895Y000682D02*
X009070Y000565D01*
X008895Y000682D02*
X009070Y000799D01*
X008526Y000857D02*
X008526Y000624D01*
X007906Y000916D02*
X007790Y000799D01*
X013142Y000711D02*
X013201Y000653D01*
X013317Y000653D01*
X013376Y000711D01*
X013376Y000770D01*
X013317Y000828D01*
X013259Y000828D01*
X013317Y000828D02*
X013376Y000887D01*
X013376Y000945D01*
X013317Y001003D01*
X013201Y001003D01*
X013142Y000945D01*
X013511Y000945D02*
X013569Y001003D01*
X013686Y001003D01*
X013744Y000945D01*
X013744Y000887D01*
X013686Y000828D01*
X013744Y000770D01*
X013744Y000711D01*
X013686Y000653D01*
X013569Y000653D01*
X013511Y000711D01*
X013627Y000828D02*
X013686Y000828D01*
X013879Y000711D02*
X014112Y000945D01*
X014112Y000711D01*
X014054Y000653D01*
X013937Y000653D01*
X013879Y000711D01*
X013879Y000945D01*
X013937Y001003D01*
X014054Y001003D01*
X014112Y000945D01*
X014247Y001003D02*
X014422Y001003D01*
X014481Y000945D01*
X014481Y000828D01*
X014422Y000770D01*
X014247Y000770D01*
X014247Y000653D02*
X014247Y001003D01*
X014364Y000770D02*
X014481Y000653D01*
X015886Y000655D02*
X015931Y000610D01*
X015886Y000655D02*
X015886Y000745D01*
X015931Y000790D01*
X015976Y000790D01*
X016156Y000610D01*
X016156Y000790D01*
X016156Y000905D02*
X015976Y001085D01*
X015931Y001085D01*
X015886Y001040D01*
X015886Y000950D01*
X015931Y000905D01*
X016156Y000905D02*
X016156Y001085D01*
X016156Y001200D02*
X015976Y001200D01*
X015976Y001335D01*
X016021Y001380D01*
X016156Y001380D01*
X015697Y001632D02*
X015697Y001677D01*
X015877Y001857D01*
X015877Y001902D01*
X015697Y001902D01*
X015582Y001857D02*
X015582Y001812D01*
X015537Y001767D01*
X015447Y001767D01*
X015402Y001812D01*
X015402Y001857D01*
X015447Y001902D01*
X015537Y001902D01*
X015582Y001857D01*
X015537Y001767D02*
X015582Y001722D01*
X015582Y001677D01*
X015537Y001632D01*
X015447Y001632D01*
X015402Y001677D01*
X015402Y001722D01*
X015447Y001767D01*
X015288Y001677D02*
X015242Y001632D01*
X015152Y001632D01*
X015107Y001677D01*
X015288Y001857D01*
X015288Y001677D01*
X015107Y001677D02*
X015107Y001857D01*
X015152Y001902D01*
X015242Y001902D01*
X015288Y001857D01*
X014993Y001902D02*
X014813Y001902D01*
X014813Y001767D01*
X014903Y001812D01*
X014948Y001812D01*
X014993Y001767D01*
X014993Y001677D01*
X014948Y001632D01*
X014858Y001632D01*
X014813Y001677D01*
X014698Y001632D02*
X014698Y001902D01*
X014518Y001902D02*
X014698Y001632D01*
X014518Y001632D02*
X014518Y001902D01*
X014404Y001857D02*
X014359Y001902D01*
X014268Y001902D01*
X014223Y001857D01*
X014404Y001857D02*
X014404Y001812D01*
X014223Y001632D01*
X014404Y001632D01*
X014047Y002731D02*
X014074Y002787D01*
X014105Y002841D01*
X014139Y002893D01*
X014176Y002943D01*
X014177Y002943D02*
X015826Y002943D01*
X016200Y003185D02*
X016317Y003068D01*
X016200Y003185D02*
X016551Y003185D01*
X016551Y003301D02*
X016551Y003068D01*
X016551Y003436D02*
X016317Y003670D01*
X016259Y003670D01*
X016200Y003611D01*
X016200Y003495D01*
X016259Y003436D01*
X016551Y003436D02*
X016551Y003670D01*
X016434Y003805D02*
X016200Y003805D01*
X016434Y003805D02*
X016551Y003921D01*
X016434Y004038D01*
X016200Y004038D01*
X015877Y004338D02*
X015697Y004157D01*
X015697Y004112D01*
X015582Y004157D02*
X015537Y004112D01*
X015447Y004112D01*
X015402Y004157D01*
X015402Y004202D01*
X015447Y004248D01*
X015537Y004248D01*
X015582Y004202D01*
X015582Y004157D01*
X015537Y004248D02*
X015582Y004293D01*
X015582Y004338D01*
X015537Y004383D01*
X015447Y004383D01*
X015402Y004338D01*
X015402Y004293D01*
X015447Y004248D01*
X015288Y004338D02*
X015288Y004157D01*
X015242Y004112D01*
X015152Y004112D01*
X015107Y004157D01*
X015288Y004338D01*
X015242Y004383D01*
X015152Y004383D01*
X015107Y004338D01*
X015107Y004157D01*
X014993Y004157D02*
X014948Y004112D01*
X014858Y004112D01*
X014813Y004157D01*
X014813Y004248D02*
X014903Y004293D01*
X014948Y004293D01*
X014993Y004248D01*
X014993Y004157D01*
X014813Y004248D02*
X014813Y004383D01*
X014993Y004383D01*
X014698Y004383D02*
X014698Y004112D01*
X014518Y004383D01*
X014518Y004112D01*
X014404Y004112D02*
X014223Y004112D01*
X014404Y004293D01*
X014404Y004338D01*
X014359Y004383D01*
X014268Y004383D01*
X014223Y004338D01*
X014047Y005211D02*
X014074Y005267D01*
X014105Y005321D01*
X014139Y005373D01*
X014176Y005423D01*
X014177Y005423D02*
X015826Y005423D01*
X015931Y005532D02*
X015886Y005577D01*
X015886Y005667D01*
X015931Y005712D01*
X015976Y005712D01*
X016156Y005532D01*
X016156Y005712D01*
X016156Y005826D02*
X015976Y006006D01*
X015931Y006006D01*
X015886Y005961D01*
X015886Y005871D01*
X015931Y005826D01*
X016156Y005826D02*
X016156Y006006D01*
X016156Y006121D02*
X015976Y006121D01*
X015976Y006256D01*
X016021Y006301D01*
X016156Y006301D01*
X014296Y006162D02*
X014296Y006104D01*
X014237Y006045D01*
X014121Y006045D01*
X014062Y006104D01*
X014062Y006162D01*
X014121Y006220D01*
X014237Y006220D01*
X014296Y006162D01*
X014237Y006045D02*
X014296Y005987D01*
X014296Y005929D01*
X014237Y005870D01*
X014121Y005870D01*
X014062Y005929D01*
X014062Y005987D01*
X014121Y006045D01*
X013930Y006104D02*
X013755Y005987D01*
X013930Y005870D01*
X013755Y005870D02*
X013755Y006220D01*
X013620Y006220D02*
X013504Y006162D01*
X013387Y006045D01*
X013562Y006045D01*
X013620Y005987D01*
X013620Y005929D01*
X013562Y005870D01*
X013445Y005870D01*
X013387Y005929D01*
X013387Y006045D01*
X013953Y004823D02*
X014449Y004823D01*
X014554Y004823D01*
X015449Y004823D01*
X015554Y004823D01*
X016050Y004823D01*
X015952Y005220D02*
X015925Y005274D01*
X015895Y005325D01*
X015862Y005375D01*
X015827Y005423D01*
X013953Y004823D02*
X013952Y004759D01*
X013955Y004695D01*
X013962Y004631D01*
X013972Y004568D01*
X013987Y004506D01*
X014005Y004445D01*
X014027Y004384D01*
X014052Y004326D01*
X016051Y004823D02*
X016046Y004882D01*
X016039Y004940D01*
X016028Y004998D01*
X016013Y005055D01*
X015996Y005111D01*
X015976Y005166D01*
X015952Y005220D01*
X016051Y004823D02*
X016052Y004759D01*
X016049Y004695D01*
X016042Y004631D01*
X016032Y004568D01*
X016017Y004506D01*
X015999Y004445D01*
X015977Y004384D01*
X015952Y004326D01*
X015877Y004338D02*
X015877Y004383D01*
X015697Y004383D01*
X013953Y004823D02*
X013958Y004882D01*
X013965Y004940D01*
X013976Y004998D01*
X013991Y005055D01*
X014008Y005111D01*
X014028Y005166D01*
X014052Y005220D01*
X014052Y004326D02*
X014081Y004269D01*
X014114Y004213D01*
X014149Y004160D01*
X014189Y004109D01*
X014231Y004061D01*
X014276Y004015D01*
X014323Y003972D01*
X014373Y003932D01*
X014426Y003895D01*
X014481Y003862D01*
X014537Y003831D01*
X014596Y003805D01*
X014656Y003782D01*
X014717Y003762D01*
X014779Y003747D01*
X014842Y003735D01*
X014906Y003727D01*
X014970Y003723D01*
X015034Y003723D01*
X015098Y003727D01*
X015162Y003735D01*
X015225Y003747D01*
X015287Y003762D01*
X015348Y003782D01*
X015408Y003805D01*
X015467Y003831D01*
X015523Y003862D01*
X015578Y003895D01*
X015631Y003932D01*
X015681Y003972D01*
X015728Y004015D01*
X015773Y004061D01*
X015815Y004109D01*
X015855Y004160D01*
X015890Y004213D01*
X015923Y004269D01*
X015952Y004326D01*
X018852Y004436D02*
X019123Y004616D01*
X019123Y004731D02*
X018852Y004731D01*
X018852Y004616D02*
X019123Y004436D01*
X019123Y004731D02*
X019123Y004911D01*
X019123Y005025D02*
X018852Y005025D01*
X018852Y005160D01*
X018897Y005205D01*
X018987Y005205D01*
X019032Y005160D01*
X019032Y005025D01*
X019032Y005115D02*
X019123Y005205D01*
X019377Y004911D02*
X019422Y004911D01*
X019467Y004866D01*
X019512Y004911D01*
X019558Y004911D01*
X019603Y004866D01*
X019603Y004776D01*
X019558Y004731D01*
X019467Y004821D02*
X019467Y004866D01*
X019377Y004911D02*
X019332Y004866D01*
X019332Y004776D01*
X019377Y004731D01*
X019115Y003948D02*
X019025Y003857D01*
X019025Y003902D02*
X019025Y003767D01*
X019115Y003767D02*
X018845Y003767D01*
X018845Y003902D01*
X018890Y003948D01*
X018980Y003948D01*
X019025Y003902D01*
X019115Y003653D02*
X019115Y003473D01*
X018845Y003473D01*
X018845Y003358D02*
X019115Y003178D01*
X019115Y003358D02*
X018845Y003178D01*
X019325Y003563D02*
X019415Y003473D01*
X019595Y003473D02*
X019595Y003653D01*
X019595Y003563D02*
X019325Y003563D01*
X019123Y002696D02*
X019032Y002606D01*
X019032Y002651D02*
X019032Y002515D01*
X019123Y002515D02*
X018852Y002515D01*
X018852Y002651D01*
X018897Y002696D01*
X018987Y002696D01*
X019032Y002651D01*
X019123Y002401D02*
X019123Y002221D01*
X018852Y002221D01*
X018852Y002106D02*
X019123Y001926D01*
X019123Y002106D02*
X018852Y001926D01*
X019332Y002266D02*
X019377Y002221D01*
X019332Y002266D02*
X019332Y002356D01*
X019377Y002401D01*
X019422Y002401D01*
X019603Y002221D01*
X019603Y002401D01*
X016050Y002343D02*
X015554Y002343D01*
X015449Y002343D01*
X014554Y002343D01*
X014449Y002343D01*
X013953Y002343D01*
X015952Y001846D02*
X015977Y001904D01*
X015999Y001965D01*
X016017Y002026D01*
X016032Y002088D01*
X016042Y002151D01*
X016049Y002215D01*
X016052Y002279D01*
X016051Y002343D01*
X015952Y002740D02*
X015925Y002794D01*
X015895Y002845D01*
X015862Y002895D01*
X015827Y002943D01*
X013953Y002343D02*
X013952Y002279D01*
X013955Y002215D01*
X013962Y002151D01*
X013972Y002088D01*
X013987Y002026D01*
X014005Y001965D01*
X014027Y001904D01*
X014052Y001846D01*
X016051Y002343D02*
X016046Y002402D01*
X016039Y002460D01*
X016028Y002518D01*
X016013Y002575D01*
X015996Y002631D01*
X015976Y002686D01*
X015952Y002740D01*
X015952Y001846D02*
X015923Y001789D01*
X015890Y001733D01*
X015855Y001680D01*
X015815Y001629D01*
X015773Y001581D01*
X015728Y001535D01*
X015681Y001492D01*
X015631Y001452D01*
X015578Y001415D01*
X015523Y001382D01*
X015467Y001351D01*
X015408Y001325D01*
X015348Y001302D01*
X015287Y001282D01*
X015225Y001267D01*
X015162Y001255D01*
X015098Y001247D01*
X015034Y001243D01*
X014970Y001243D01*
X014906Y001247D01*
X014842Y001255D01*
X014779Y001267D01*
X014717Y001282D01*
X014656Y001302D01*
X014596Y001325D01*
X014537Y001351D01*
X014481Y001382D01*
X014426Y001415D01*
X014373Y001452D01*
X014323Y001492D01*
X014276Y001535D01*
X014231Y001581D01*
X014189Y001629D01*
X014149Y001680D01*
X014114Y001733D01*
X014081Y001789D01*
X014052Y001846D01*
X013953Y002343D02*
X013958Y002402D01*
X013965Y002460D01*
X013976Y002518D01*
X013991Y002575D01*
X014008Y002631D01*
X014028Y002686D01*
X014052Y002740D01*
X007383Y004968D02*
X007164Y004888D01*
X007304Y005187D01*
X007284Y005242D01*
X007209Y005277D01*
X007099Y005237D01*
X007064Y005162D01*
X006960Y005062D02*
X006836Y004893D01*
X007040Y004843D01*
X006876Y004783D02*
X006756Y005112D01*
X006649Y005011D02*
X006574Y005046D01*
X006465Y005006D01*
X006430Y004931D01*
X006649Y005011D02*
X006669Y004956D01*
X006530Y004657D01*
X006749Y004737D01*
X006205Y005345D02*
X006205Y005578D01*
X006030Y005520D02*
X006205Y005345D01*
X006030Y005520D02*
X006381Y005520D01*
X006381Y005713D02*
X006322Y005713D01*
X006089Y005947D01*
X006030Y005947D01*
X006030Y005713D01*
X006089Y006081D02*
X006030Y006140D01*
X006030Y006256D01*
X006089Y006315D01*
X006322Y006081D01*
X006381Y006140D01*
X006381Y006256D01*
X006322Y006315D01*
X006089Y006315D01*
X006147Y006450D02*
X006147Y006625D01*
X006205Y006683D01*
X006322Y006683D01*
X006381Y006625D01*
X006381Y006450D01*
X006497Y006450D02*
X006147Y006450D01*
X006089Y006081D02*
X006322Y006081D01*
X007803Y006152D02*
X008037Y006152D01*
X007920Y006152D02*
X007920Y006502D01*
X007803Y006385D01*
X008171Y006444D02*
X008230Y006502D01*
X008347Y006502D01*
X008405Y006444D01*
X008171Y006210D01*
X008230Y006152D01*
X008347Y006152D01*
X008405Y006210D01*
X008405Y006444D01*
X008540Y006444D02*
X008598Y006502D01*
X008715Y006502D01*
X008773Y006444D01*
X008540Y006210D01*
X008598Y006152D01*
X008715Y006152D01*
X008773Y006210D01*
X008773Y006444D01*
X008908Y006502D02*
X008908Y006152D01*
X008908Y006269D02*
X009083Y006152D01*
X008908Y006269D02*
X009083Y006385D01*
X008540Y006444D02*
X008540Y006210D01*
X008171Y006210D02*
X008171Y006444D01*
X003106Y005475D02*
X003031Y005475D01*
X002731Y005775D01*
X002656Y005775D01*
X002656Y005475D01*
X002881Y005315D02*
X002881Y005015D01*
X002656Y005240D01*
X003106Y005240D01*
X003031Y004854D02*
X002881Y004854D01*
X003031Y004854D02*
X003106Y004779D01*
X003106Y004704D01*
X003031Y004629D01*
X003182Y004629D01*
X003257Y004554D01*
X003031Y004629D02*
X002881Y004629D01*
X001170Y005196D02*
X000990Y005196D01*
X001080Y005196D02*
X001080Y004926D01*
X000875Y004926D02*
X000695Y004926D01*
X000695Y005196D01*
X000875Y005196D01*
X000785Y005061D02*
X000695Y005061D01*
X000491Y005061D02*
X000401Y005061D01*
X000401Y004926D02*
X000401Y005196D01*
X000581Y005196D01*
X000695Y004716D02*
X000830Y004716D01*
X000875Y004671D01*
X000875Y004491D01*
X000830Y004446D01*
X000695Y004446D01*
X000695Y004716D01*
X000676Y003877D02*
X000676Y003607D01*
X000856Y003607D01*
X001060Y003607D02*
X001060Y003877D01*
X000970Y003877D02*
X001150Y003877D01*
X000856Y003877D02*
X000676Y003877D01*
X000561Y003877D02*
X000381Y003877D01*
X000381Y003607D01*
X000381Y003742D02*
X000471Y003742D01*
X000676Y003742D02*
X000766Y003742D01*
X000811Y003397D02*
X000721Y003397D01*
X000676Y003352D01*
X000676Y003307D01*
X000721Y003262D01*
X000811Y003262D01*
X000856Y003217D01*
X000856Y003172D01*
X000811Y003127D01*
X000721Y003127D01*
X000676Y003172D01*
X000856Y003352D02*
X000811Y003397D01*
D11*
X005482Y002680D02*
X005623Y002629D01*
X008160Y001705D02*
X008301Y001654D01*
X007116Y000730D02*
X006966Y000730D01*
X009816Y000730D02*
X009966Y000730D01*
X012320Y000848D02*
X012470Y000848D01*
X015170Y000848D02*
X015320Y000848D01*
X005623Y004481D02*
X005482Y004429D01*
X008160Y005404D02*
X008301Y005456D01*
X007116Y006340D02*
X006966Y006340D01*
X009816Y006340D02*
X009966Y006340D01*
X012320Y006065D02*
X012470Y006065D01*
X015170Y006065D02*
X015320Y006065D01*
D12*
X002465Y003320D02*
X002465Y000620D01*
X002467Y000603D01*
X002471Y000586D01*
X002478Y000570D01*
X002488Y000556D01*
X002501Y000543D01*
X002515Y000533D01*
X002531Y000526D01*
X002548Y000522D01*
X002565Y000520D01*
X004565Y000520D01*
X004582Y000522D01*
X004599Y000526D01*
X004615Y000533D01*
X004629Y000543D01*
X004642Y000556D01*
X004652Y000570D01*
X004659Y000586D01*
X004663Y000603D01*
X004665Y000620D01*
X004665Y003320D01*
X004663Y003337D01*
X004659Y003354D01*
X004652Y003370D01*
X004642Y003384D01*
X004629Y003397D01*
X004615Y003407D01*
X004599Y003414D01*
X004582Y003418D01*
X004565Y003420D01*
X002565Y003420D01*
X002548Y003418D01*
X002531Y003414D01*
X002515Y003407D01*
X002501Y003397D01*
X002488Y003384D01*
X002478Y003370D01*
X002471Y003354D01*
X002467Y003337D01*
X002465Y003320D01*
X002565Y003670D02*
X004565Y003670D01*
X004582Y003672D01*
X004599Y003676D01*
X004615Y003683D01*
X004629Y003693D01*
X004642Y003706D01*
X004652Y003720D01*
X004659Y003736D01*
X004663Y003753D01*
X004665Y003770D01*
X004665Y006470D01*
X004663Y006487D01*
X004659Y006504D01*
X004652Y006520D01*
X004642Y006534D01*
X004629Y006547D01*
X004615Y006557D01*
X004599Y006564D01*
X004582Y006568D01*
X004565Y006570D01*
X002565Y006570D01*
X002548Y006568D01*
X002531Y006564D01*
X002515Y006557D01*
X002501Y006547D01*
X002488Y006534D01*
X002478Y006520D01*
X002471Y006504D01*
X002467Y006487D01*
X002465Y006470D01*
X002465Y003770D01*
X002467Y003753D01*
X002471Y003736D01*
X002478Y003720D01*
X002488Y003706D01*
X002501Y003693D01*
X002515Y003683D01*
X002531Y003676D01*
X002548Y003672D01*
X002565Y003670D01*
X003565Y004520D02*
X003565Y005000D01*
X003565Y005250D02*
X003565Y005720D01*
X004965Y005356D02*
X004965Y006656D01*
X004967Y006682D01*
X004972Y006708D01*
X004980Y006733D01*
X004992Y006756D01*
X005006Y006778D01*
X005024Y006797D01*
X005043Y006815D01*
X005065Y006829D01*
X005088Y006841D01*
X005113Y006849D01*
X005139Y006854D01*
X005165Y006856D01*
X005665Y006856D01*
X005691Y006854D01*
X005717Y006849D01*
X005742Y006841D01*
X005765Y006829D01*
X005787Y006815D01*
X005806Y006797D01*
X005824Y006778D01*
X005838Y006756D01*
X005850Y006733D01*
X005858Y006708D01*
X005863Y006682D01*
X005865Y006656D01*
X005865Y005356D01*
X005863Y005330D01*
X005858Y005304D01*
X005850Y005279D01*
X005838Y005256D01*
X005824Y005234D01*
X005806Y005215D01*
X005787Y005197D01*
X005765Y005183D01*
X005742Y005171D01*
X005717Y005163D01*
X005691Y005158D01*
X005665Y005156D01*
X005165Y005156D01*
X005139Y005158D01*
X005113Y005163D01*
X005088Y005171D01*
X005065Y005183D01*
X005043Y005197D01*
X005024Y005215D01*
X005006Y005234D01*
X004992Y005256D01*
X004980Y005279D01*
X004972Y005304D01*
X004967Y005330D01*
X004965Y005356D01*
X005415Y005506D02*
X005415Y005876D01*
X005415Y006126D02*
X005415Y006506D01*
X007216Y006690D02*
X007216Y005990D01*
X007218Y005973D01*
X007222Y005956D01*
X007229Y005940D01*
X007239Y005926D01*
X007252Y005913D01*
X007266Y005903D01*
X007282Y005896D01*
X007299Y005892D01*
X007316Y005890D01*
X007466Y005890D01*
X007516Y005940D01*
X009416Y005940D01*
X009466Y005890D01*
X009616Y005890D01*
X009633Y005892D01*
X009650Y005896D01*
X009666Y005903D01*
X009680Y005913D01*
X009693Y005926D01*
X009703Y005940D01*
X009710Y005956D01*
X009714Y005973D01*
X009716Y005990D01*
X009716Y006690D01*
X009714Y006707D01*
X009710Y006724D01*
X009703Y006740D01*
X009693Y006754D01*
X009680Y006767D01*
X009666Y006777D01*
X009650Y006784D01*
X009633Y006788D01*
X009616Y006790D01*
X009466Y006790D01*
X009416Y006740D01*
X007516Y006740D01*
X007466Y006790D01*
X007316Y006790D01*
X007299Y006788D01*
X007282Y006784D01*
X007266Y006777D01*
X007252Y006767D01*
X007239Y006754D01*
X007229Y006740D01*
X007222Y006724D01*
X007218Y006707D01*
X007216Y006690D01*
X007677Y005707D02*
X007818Y005759D01*
X007946Y005699D02*
X008186Y005041D01*
X008190Y005024D01*
X008192Y005007D01*
X008190Y004990D01*
X008186Y004973D01*
X008179Y004957D01*
X008169Y004943D01*
X008156Y004930D01*
X008142Y004920D01*
X008126Y004913D01*
X007985Y004862D01*
X007921Y004892D01*
X006135Y004242D01*
X006106Y004178D01*
X005965Y004126D01*
X005964Y004126D02*
X005947Y004122D01*
X005930Y004120D01*
X005913Y004122D01*
X005896Y004126D01*
X005880Y004133D01*
X005866Y004143D01*
X005853Y004156D01*
X005843Y004170D01*
X005836Y004186D01*
X005597Y004844D01*
X005593Y004861D01*
X005591Y004878D01*
X005593Y004895D01*
X005597Y004912D01*
X005604Y004928D01*
X005614Y004942D01*
X005627Y004955D01*
X005641Y004965D01*
X005657Y004972D01*
X005798Y005023D01*
X005862Y004993D01*
X007647Y005643D01*
X007677Y005707D01*
X007818Y005759D02*
X007837Y005764D01*
X007856Y005765D01*
X007876Y005762D01*
X007894Y005756D01*
X007911Y005746D01*
X007926Y005733D01*
X007937Y005717D01*
X007946Y005699D01*
X009677Y005695D02*
X009677Y005545D01*
X009727Y005495D01*
X009727Y005745D01*
X009677Y005695D01*
X009697Y005695D01*
X009697Y005545D01*
X009727Y005495D02*
X009777Y005445D01*
X009797Y005445D01*
X009797Y005295D01*
X009777Y005295D01*
X009727Y005245D01*
X009727Y001345D01*
X009677Y001395D01*
X009677Y005195D01*
X009697Y005195D01*
X009697Y001395D01*
X009727Y001345D02*
X009777Y001295D01*
X012077Y001295D01*
X012077Y005295D01*
X012077Y005445D01*
X011977Y005445D01*
X009827Y005445D01*
X009827Y005295D01*
X009797Y005295D01*
X009777Y005295D02*
X009777Y005445D01*
X009797Y005445D02*
X009827Y005445D01*
X009827Y005295D02*
X011977Y005295D01*
X011977Y005445D01*
X012077Y005445D02*
X012077Y005795D01*
X012177Y005695D01*
X012177Y005545D01*
X012077Y005445D01*
X012077Y005295D02*
X011977Y005295D01*
X012077Y005295D02*
X012177Y005195D01*
X012177Y001395D01*
X012077Y001295D01*
X012570Y001198D02*
X012570Y000498D01*
X012572Y000481D01*
X012576Y000464D01*
X012583Y000448D01*
X012593Y000434D01*
X012606Y000421D01*
X012620Y000411D01*
X012636Y000404D01*
X012653Y000400D01*
X012670Y000398D01*
X012820Y000398D01*
X012870Y000448D01*
X014770Y000448D01*
X014820Y000398D01*
X014970Y000398D01*
X014987Y000400D01*
X015004Y000404D01*
X015020Y000411D01*
X015034Y000421D01*
X015047Y000434D01*
X015057Y000448D01*
X015064Y000464D01*
X015068Y000481D01*
X015070Y000498D01*
X015070Y001198D01*
X015068Y001215D01*
X015064Y001232D01*
X015057Y001248D01*
X015047Y001262D01*
X015034Y001275D01*
X015020Y001285D01*
X015004Y001292D01*
X014987Y001296D01*
X014970Y001298D01*
X014820Y001298D01*
X014770Y001248D01*
X012870Y001248D01*
X012820Y001298D01*
X012670Y001298D01*
X012653Y001296D01*
X012636Y001292D01*
X012620Y001285D01*
X012606Y001275D01*
X012593Y001262D01*
X012583Y001248D01*
X012576Y001232D01*
X012572Y001215D01*
X012570Y001198D01*
X010927Y001495D02*
X010927Y004295D01*
X010427Y004595D02*
X011427Y004595D01*
X011427Y004795D01*
X010927Y004795D01*
X010427Y004795D01*
X010427Y004595D01*
X010927Y004795D02*
X010927Y005145D01*
X011177Y005045D02*
X011377Y005045D01*
X011277Y005145D02*
X011277Y004945D01*
X009727Y005245D02*
X009677Y005195D01*
X009727Y005745D02*
X009777Y005795D01*
X012077Y005795D01*
X012570Y005715D02*
X012570Y006415D01*
X012572Y006432D01*
X012576Y006449D01*
X012583Y006465D01*
X012593Y006479D01*
X012606Y006492D01*
X012620Y006502D01*
X012636Y006509D01*
X012653Y006513D01*
X012670Y006515D01*
X012820Y006515D01*
X012870Y006465D01*
X014770Y006465D01*
X014820Y006515D01*
X014970Y006515D01*
X014987Y006513D01*
X015004Y006509D01*
X015020Y006502D01*
X015034Y006492D01*
X015047Y006479D01*
X015057Y006465D01*
X015064Y006449D01*
X015068Y006432D01*
X015070Y006415D01*
X015070Y005715D01*
X015068Y005698D01*
X015064Y005681D01*
X015057Y005665D01*
X015047Y005651D01*
X015034Y005638D01*
X015020Y005628D01*
X015004Y005621D01*
X014987Y005617D01*
X014970Y005615D01*
X014820Y005615D01*
X014770Y005665D01*
X012870Y005665D01*
X012820Y005615D01*
X012670Y005615D01*
X012653Y005617D01*
X012636Y005621D01*
X012620Y005628D01*
X012606Y005638D01*
X012593Y005651D01*
X012583Y005665D01*
X012576Y005681D01*
X012572Y005698D01*
X012570Y005715D01*
X016337Y005795D02*
X016337Y006295D01*
X016339Y006321D01*
X016344Y006347D01*
X016352Y006372D01*
X016364Y006395D01*
X016378Y006417D01*
X016396Y006436D01*
X016415Y006454D01*
X016437Y006468D01*
X016460Y006480D01*
X016485Y006488D01*
X016511Y006493D01*
X016537Y006495D01*
X017837Y006495D01*
X017863Y006493D01*
X017889Y006488D01*
X017914Y006480D01*
X017937Y006468D01*
X017959Y006454D01*
X017978Y006436D01*
X017996Y006417D01*
X018010Y006395D01*
X018022Y006372D01*
X018030Y006347D01*
X018035Y006321D01*
X018037Y006295D01*
X018037Y005795D01*
X018035Y005769D01*
X018030Y005743D01*
X018022Y005718D01*
X018010Y005695D01*
X017996Y005673D01*
X017978Y005654D01*
X017959Y005636D01*
X017937Y005622D01*
X017914Y005610D01*
X017889Y005602D01*
X017863Y005597D01*
X017837Y005595D01*
X016537Y005595D01*
X016511Y005597D01*
X016485Y005602D01*
X016460Y005610D01*
X016437Y005622D01*
X016415Y005636D01*
X016396Y005654D01*
X016378Y005673D01*
X016364Y005695D01*
X016352Y005718D01*
X016344Y005743D01*
X016339Y005769D01*
X016337Y005795D01*
X016687Y006045D02*
X017057Y006045D01*
X017307Y006045D02*
X017687Y006045D01*
X017419Y004401D02*
X016719Y004401D01*
X016719Y002689D01*
X017419Y002689D01*
X017419Y004401D01*
X017069Y004145D02*
X017069Y003545D01*
X016819Y003545D01*
X016819Y003645D01*
X017069Y003545D02*
X017319Y003545D01*
X017069Y003545D02*
X016819Y003945D01*
X017319Y003945D01*
X017069Y003545D01*
X017069Y003295D01*
X016537Y001534D02*
X017837Y001534D01*
X017863Y001532D01*
X017889Y001527D01*
X017914Y001519D01*
X017937Y001507D01*
X017959Y001493D01*
X017978Y001475D01*
X017996Y001456D01*
X018010Y001434D01*
X018022Y001411D01*
X018030Y001386D01*
X018035Y001360D01*
X018037Y001334D01*
X018037Y000834D01*
X018035Y000808D01*
X018030Y000782D01*
X018022Y000757D01*
X018010Y000734D01*
X017996Y000712D01*
X017978Y000693D01*
X017959Y000675D01*
X017937Y000661D01*
X017914Y000649D01*
X017889Y000641D01*
X017863Y000636D01*
X017837Y000634D01*
X016537Y000634D01*
X016511Y000636D01*
X016485Y000641D01*
X016460Y000649D01*
X016437Y000661D01*
X016415Y000675D01*
X016396Y000693D01*
X016378Y000712D01*
X016364Y000734D01*
X016352Y000757D01*
X016344Y000782D01*
X016339Y000808D01*
X016337Y000834D01*
X016337Y001334D01*
X016339Y001360D01*
X016344Y001386D01*
X016352Y001411D01*
X016364Y001434D01*
X016378Y001456D01*
X016396Y001475D01*
X016415Y001493D01*
X016437Y001507D01*
X016460Y001519D01*
X016485Y001527D01*
X016511Y001532D01*
X016537Y001534D01*
X016687Y001084D02*
X017057Y001084D01*
X017307Y001084D02*
X017687Y001084D01*
X009716Y001080D02*
X009716Y000380D01*
X009714Y000363D01*
X009710Y000346D01*
X009703Y000330D01*
X009693Y000316D01*
X009680Y000303D01*
X009666Y000293D01*
X009650Y000286D01*
X009633Y000282D01*
X009616Y000280D01*
X009466Y000280D01*
X009416Y000330D01*
X007516Y000330D01*
X007466Y000280D01*
X007316Y000280D01*
X007299Y000282D01*
X007282Y000286D01*
X007266Y000293D01*
X007252Y000303D01*
X007239Y000316D01*
X007229Y000330D01*
X007222Y000346D01*
X007218Y000363D01*
X007216Y000380D01*
X007216Y001080D01*
X007218Y001097D01*
X007222Y001114D01*
X007229Y001130D01*
X007239Y001144D01*
X007252Y001157D01*
X007266Y001167D01*
X007282Y001174D01*
X007299Y001178D01*
X007316Y001180D01*
X007466Y001180D01*
X007516Y001130D01*
X009416Y001130D01*
X009466Y001180D01*
X009616Y001180D01*
X009633Y001178D01*
X009650Y001174D01*
X009666Y001167D01*
X009680Y001157D01*
X009693Y001144D01*
X009703Y001130D01*
X009710Y001114D01*
X009714Y001097D01*
X009716Y001080D01*
X007946Y001411D02*
X008186Y002068D01*
X008190Y002085D01*
X008192Y002102D01*
X008190Y002119D01*
X008186Y002136D01*
X008179Y002152D01*
X008169Y002166D01*
X008156Y002179D01*
X008142Y002189D01*
X008126Y002196D01*
X007985Y002248D01*
X007921Y002218D01*
X006135Y002868D01*
X006106Y002932D01*
X005965Y002983D01*
X005836Y002923D02*
X005597Y002266D01*
X005597Y002265D02*
X005593Y002248D01*
X005591Y002231D01*
X005593Y002214D01*
X005597Y002197D01*
X005604Y002181D01*
X005614Y002167D01*
X005627Y002154D01*
X005641Y002144D01*
X005657Y002137D01*
X005798Y002086D01*
X005862Y002116D01*
X007647Y001466D01*
X007677Y001402D01*
X007818Y001351D01*
X007835Y001347D01*
X007852Y001345D01*
X007869Y001347D01*
X007886Y001351D01*
X007902Y001358D01*
X007916Y001368D01*
X007929Y001381D01*
X007939Y001395D01*
X007946Y001411D01*
X005865Y001734D02*
X005865Y000434D01*
X005863Y000408D01*
X005858Y000382D01*
X005850Y000357D01*
X005838Y000334D01*
X005824Y000312D01*
X005806Y000293D01*
X005787Y000275D01*
X005765Y000261D01*
X005742Y000249D01*
X005717Y000241D01*
X005691Y000236D01*
X005665Y000234D01*
X005165Y000234D01*
X005139Y000236D01*
X005113Y000241D01*
X005088Y000249D01*
X005065Y000261D01*
X005043Y000275D01*
X005024Y000293D01*
X005006Y000312D01*
X004992Y000334D01*
X004980Y000357D01*
X004972Y000382D01*
X004967Y000408D01*
X004965Y000434D01*
X004965Y001734D01*
X004967Y001760D01*
X004972Y001786D01*
X004980Y001811D01*
X004992Y001834D01*
X005006Y001856D01*
X005024Y001875D01*
X005043Y001893D01*
X005065Y001907D01*
X005088Y001919D01*
X005113Y001927D01*
X005139Y001932D01*
X005165Y001934D01*
X005665Y001934D01*
X005691Y001932D01*
X005717Y001927D01*
X005742Y001919D01*
X005765Y001907D01*
X005787Y001893D01*
X005806Y001875D01*
X005824Y001856D01*
X005838Y001834D01*
X005850Y001811D01*
X005858Y001786D01*
X005863Y001760D01*
X005865Y001734D01*
X005415Y001584D02*
X005415Y001204D01*
X005415Y000954D02*
X005415Y000584D01*
X003565Y001370D02*
X003565Y001850D01*
X003565Y002100D02*
X003565Y002570D01*
X005836Y002923D02*
X005843Y002939D01*
X005853Y002953D01*
X005866Y002966D01*
X005880Y002976D01*
X005896Y002983D01*
X005913Y002987D01*
X005930Y002989D01*
X005947Y002987D01*
X005964Y002983D01*
D13*
G36*
X005675Y002483D02*
X005582Y002517D01*
X005665Y002741D01*
X005758Y002707D01*
X005675Y002483D01*
G37*
G36*
X008118Y001593D02*
X008025Y001627D01*
X008108Y001851D01*
X008201Y001817D01*
X008118Y001593D01*
G37*
X007166Y000730D03*
X009766Y000730D03*
X012520Y000848D03*
X015120Y000848D03*
G36*
X005758Y004403D02*
X005665Y004369D01*
X005582Y004593D01*
X005675Y004627D01*
X005758Y004403D01*
G37*
G36*
X008201Y005292D02*
X008108Y005258D01*
X008025Y005482D01*
X008118Y005516D01*
X008201Y005292D01*
G37*
X007166Y006340D03*
X009766Y006340D03*
X012520Y006065D03*
X015120Y006065D03*
D14*
X017057Y006345D02*
X017057Y005745D01*
X017307Y005745D02*
X017307Y006345D01*
X012127Y005695D02*
X012127Y005545D01*
X012027Y005395D02*
X012027Y005345D01*
X012127Y005195D02*
X012127Y001395D01*
X017057Y001384D02*
X017057Y000784D01*
X017307Y000784D02*
X017307Y001384D01*
X005715Y001204D02*
X005115Y001204D01*
X005115Y000954D02*
X005715Y000954D01*
X003815Y001850D02*
X003565Y001850D01*
X003315Y001850D01*
X003315Y002100D02*
X003565Y002100D01*
X003815Y002100D01*
X003815Y005000D02*
X003565Y005000D01*
X003315Y005000D01*
X003315Y005250D02*
X003565Y005250D01*
X003815Y005250D01*
X005115Y005876D02*
X005715Y005876D01*
X005715Y006126D02*
X005115Y006126D01*
D15*
X010927Y006095D02*
X010927Y006545D01*
X010927Y000995D02*
X010927Y000545D01*
D16*
X010927Y004345D03*
D17*
X010927Y005945D03*
X010927Y001145D03*
D18*
X010625Y001613D02*
X010625Y002007D01*
X010625Y001810D02*
X010034Y001810D01*
X010231Y001613D01*
X010133Y002221D02*
X010034Y002319D01*
X010034Y002516D01*
X010133Y002614D01*
X010527Y002221D01*
X010625Y002319D01*
X010625Y002516D01*
X010527Y002614D01*
X010133Y002614D01*
X010723Y002927D02*
X010822Y002828D01*
X010723Y002927D02*
X010527Y002927D01*
X010625Y003025D01*
X010625Y003124D01*
X010527Y003222D01*
X010330Y003222D01*
X010330Y002927D02*
X010527Y002927D01*
X010527Y002221D02*
X010133Y002221D01*
D19*
X017069Y003089D03*
D20*
X017069Y002579D03*
X017069Y004511D03*
M02*
