G75*
G70*
%OFA0B0*%
%FSLAX24Y24*%
%IPPOS*%
%LPD*%
%AMOC8*
5,1,8,0,0,1.08239X$1,22.5*
%
%ADD10C,0.0060*%
%ADD11C,0.0120*%
%ADD12C,0.0100*%
%ADD13C,0.0300*%
%ADD14R,0.0200X0.1200*%
%ADD15R,0.0350X0.0300*%
%ADD16C,0.0070*%
D10*
X006462Y001945D02*
X006962Y001945D01*
X006962Y002095D01*
X006962Y005045D01*
X007312Y005045D01*
X007312Y005145D01*
X007362Y005195D01*
X013412Y005195D01*
X013462Y005145D01*
X013462Y001945D01*
X013312Y001795D01*
X007462Y001795D01*
X007312Y001945D01*
X013462Y001945D01*
X013262Y003545D02*
X008512Y003545D01*
X007962Y003545D02*
X007512Y003545D01*
X007662Y003345D02*
X007662Y003045D01*
X007962Y002945D02*
X007962Y003545D01*
X007962Y004145D01*
X008162Y004145D01*
X008162Y002945D01*
X007962Y002945D01*
X007812Y003195D02*
X007512Y003195D01*
X007312Y002095D02*
X006962Y002095D01*
X006962Y001945D02*
X007312Y001945D01*
X007312Y002095D01*
X007312Y005045D01*
X007312Y005145D02*
X006962Y005145D01*
X006962Y005045D01*
X006962Y005145D02*
X006912Y005195D01*
X006812Y005295D01*
X006612Y005295D01*
X006512Y005195D01*
X006912Y005195D01*
X006512Y005195D02*
X006462Y005145D01*
X006462Y001945D01*
X006612Y001795D01*
X006812Y001795D01*
X006962Y001945D01*
X007362Y005195D02*
X007462Y005295D01*
X013312Y005295D01*
X013412Y005195D01*
D11*
X007262Y002045D02*
X007012Y002045D01*
X007012Y001995D02*
X007262Y001995D01*
X007412Y001895D02*
X013362Y001895D01*
X013312Y001845D02*
X007462Y001845D01*
X006862Y001895D02*
X006562Y001895D01*
X006612Y001845D02*
X006812Y001845D01*
D12*
X007012Y005095D02*
X007262Y005095D01*
X007462Y005245D02*
X013312Y005245D01*
X006812Y005245D02*
X006612Y005245D01*
D13*
X006112Y003545D02*
X005462Y003545D01*
X013812Y003545D02*
X014462Y003545D01*
D14*
X008462Y003545D03*
D15*
X006287Y003545D03*
X013637Y003545D03*
D16*
X013158Y004047D02*
X012764Y004047D01*
X012961Y004047D02*
X012961Y004637D01*
X013158Y004440D01*
X012550Y004539D02*
X012550Y004145D01*
X012156Y004539D01*
X012156Y004145D01*
X012255Y004047D01*
X012452Y004047D01*
X012550Y004145D01*
X011942Y004145D02*
X011844Y004047D01*
X011647Y004047D01*
X011549Y004145D01*
X011549Y004539D01*
X011942Y004145D01*
X011942Y004539D01*
X011844Y004637D01*
X011647Y004637D01*
X011549Y004539D01*
X011236Y004342D02*
X011236Y004145D01*
X011236Y003948D01*
X011335Y003850D01*
X011138Y004047D02*
X011039Y004047D01*
X010941Y004145D01*
X010941Y004342D01*
X011236Y004145D02*
X011138Y004047D01*
X012156Y004539D02*
X012255Y004637D01*
X012452Y004637D01*
X012550Y004539D01*
M02*
