%
M48
M72
T01C0.0320
T02C0.0400
T03C0.0472
%
T01
X3565Y970
X5415Y584
X6966Y730
X5415Y1584
X8301Y1654
X9966Y730
X10927Y545
X12320Y848
X15320Y848
X16687Y1084
X17687Y1084
X16002Y2293
X15002Y2293
X14002Y2293
X14002Y4773
X15002Y4773
X16002Y4773
X16687Y6045
X17687Y6045
X15320Y6065
X12320Y6065
X10927Y6545
X9966Y6340
X8301Y5456
X6966Y6340
X5415Y6506
X3565Y6120
X5415Y5506
X5482Y4429
X3565Y4120
X3565Y2970
X5482Y2680
T02
X5462Y3545
X14462Y3545
X17069Y2135
X17069Y4954
T03
X18210Y4923
X18210Y3545
X18210Y2167
X1793Y2167
X1793Y3545
X1793Y4923
M30
