G75*
G70*
%OFA0B0*%
%FSLAX24Y24*%
%IPPOS*%
%LPD*%
%AMOC8*
5,1,8,0,0,1.08239X$1,22.5*
%
%ADD10C,0.0000*%
D10*
X000180Y000180D02*
X000180Y007070D01*
X019865Y007070D01*
X019865Y000180D01*
X000180Y000180D01*
X000534Y001164D02*
X000536Y001214D01*
X000542Y001264D01*
X000552Y001313D01*
X000566Y001361D01*
X000583Y001408D01*
X000604Y001453D01*
X000629Y001497D01*
X000657Y001538D01*
X000689Y001577D01*
X000723Y001614D01*
X000760Y001648D01*
X000800Y001678D01*
X000842Y001705D01*
X000886Y001729D01*
X000932Y001750D01*
X000979Y001766D01*
X001027Y001779D01*
X001077Y001788D01*
X001126Y001793D01*
X001177Y001794D01*
X001227Y001791D01*
X001276Y001784D01*
X001325Y001773D01*
X001373Y001758D01*
X001419Y001740D01*
X001464Y001718D01*
X001507Y001692D01*
X001548Y001663D01*
X001587Y001631D01*
X001623Y001596D01*
X001655Y001558D01*
X001685Y001518D01*
X001712Y001475D01*
X001735Y001431D01*
X001754Y001385D01*
X001770Y001337D01*
X001782Y001288D01*
X001790Y001239D01*
X001794Y001189D01*
X001794Y001139D01*
X001790Y001089D01*
X001782Y001040D01*
X001770Y000991D01*
X001754Y000943D01*
X001735Y000897D01*
X001712Y000853D01*
X001685Y000810D01*
X001655Y000770D01*
X001623Y000732D01*
X001587Y000697D01*
X001548Y000665D01*
X001507Y000636D01*
X001464Y000610D01*
X001419Y000588D01*
X001373Y000570D01*
X001325Y000555D01*
X001276Y000544D01*
X001227Y000537D01*
X001177Y000534D01*
X001126Y000535D01*
X001077Y000540D01*
X001027Y000549D01*
X000979Y000562D01*
X000932Y000578D01*
X000886Y000599D01*
X000842Y000623D01*
X000800Y000650D01*
X000760Y000680D01*
X000723Y000714D01*
X000689Y000751D01*
X000657Y000790D01*
X000629Y000831D01*
X000604Y000875D01*
X000583Y000920D01*
X000566Y000967D01*
X000552Y001015D01*
X000542Y001064D01*
X000536Y001114D01*
X000534Y001164D01*
X000534Y006086D02*
X000536Y006136D01*
X000542Y006186D01*
X000552Y006235D01*
X000566Y006283D01*
X000583Y006330D01*
X000604Y006375D01*
X000629Y006419D01*
X000657Y006460D01*
X000689Y006499D01*
X000723Y006536D01*
X000760Y006570D01*
X000800Y006600D01*
X000842Y006627D01*
X000886Y006651D01*
X000932Y006672D01*
X000979Y006688D01*
X001027Y006701D01*
X001077Y006710D01*
X001126Y006715D01*
X001177Y006716D01*
X001227Y006713D01*
X001276Y006706D01*
X001325Y006695D01*
X001373Y006680D01*
X001419Y006662D01*
X001464Y006640D01*
X001507Y006614D01*
X001548Y006585D01*
X001587Y006553D01*
X001623Y006518D01*
X001655Y006480D01*
X001685Y006440D01*
X001712Y006397D01*
X001735Y006353D01*
X001754Y006307D01*
X001770Y006259D01*
X001782Y006210D01*
X001790Y006161D01*
X001794Y006111D01*
X001794Y006061D01*
X001790Y006011D01*
X001782Y005962D01*
X001770Y005913D01*
X001754Y005865D01*
X001735Y005819D01*
X001712Y005775D01*
X001685Y005732D01*
X001655Y005692D01*
X001623Y005654D01*
X001587Y005619D01*
X001548Y005587D01*
X001507Y005558D01*
X001464Y005532D01*
X001419Y005510D01*
X001373Y005492D01*
X001325Y005477D01*
X001276Y005466D01*
X001227Y005459D01*
X001177Y005456D01*
X001126Y005457D01*
X001077Y005462D01*
X001027Y005471D01*
X000979Y005484D01*
X000932Y005500D01*
X000886Y005521D01*
X000842Y005545D01*
X000800Y005572D01*
X000760Y005602D01*
X000723Y005636D01*
X000689Y005673D01*
X000657Y005712D01*
X000629Y005753D01*
X000604Y005797D01*
X000583Y005842D01*
X000566Y005889D01*
X000552Y005937D01*
X000542Y005986D01*
X000536Y006036D01*
X000534Y006086D01*
X018251Y006086D02*
X018253Y006136D01*
X018259Y006186D01*
X018269Y006235D01*
X018283Y006283D01*
X018300Y006330D01*
X018321Y006375D01*
X018346Y006419D01*
X018374Y006460D01*
X018406Y006499D01*
X018440Y006536D01*
X018477Y006570D01*
X018517Y006600D01*
X018559Y006627D01*
X018603Y006651D01*
X018649Y006672D01*
X018696Y006688D01*
X018744Y006701D01*
X018794Y006710D01*
X018843Y006715D01*
X018894Y006716D01*
X018944Y006713D01*
X018993Y006706D01*
X019042Y006695D01*
X019090Y006680D01*
X019136Y006662D01*
X019181Y006640D01*
X019224Y006614D01*
X019265Y006585D01*
X019304Y006553D01*
X019340Y006518D01*
X019372Y006480D01*
X019402Y006440D01*
X019429Y006397D01*
X019452Y006353D01*
X019471Y006307D01*
X019487Y006259D01*
X019499Y006210D01*
X019507Y006161D01*
X019511Y006111D01*
X019511Y006061D01*
X019507Y006011D01*
X019499Y005962D01*
X019487Y005913D01*
X019471Y005865D01*
X019452Y005819D01*
X019429Y005775D01*
X019402Y005732D01*
X019372Y005692D01*
X019340Y005654D01*
X019304Y005619D01*
X019265Y005587D01*
X019224Y005558D01*
X019181Y005532D01*
X019136Y005510D01*
X019090Y005492D01*
X019042Y005477D01*
X018993Y005466D01*
X018944Y005459D01*
X018894Y005456D01*
X018843Y005457D01*
X018794Y005462D01*
X018744Y005471D01*
X018696Y005484D01*
X018649Y005500D01*
X018603Y005521D01*
X018559Y005545D01*
X018517Y005572D01*
X018477Y005602D01*
X018440Y005636D01*
X018406Y005673D01*
X018374Y005712D01*
X018346Y005753D01*
X018321Y005797D01*
X018300Y005842D01*
X018283Y005889D01*
X018269Y005937D01*
X018259Y005986D01*
X018253Y006036D01*
X018251Y006086D01*
X018251Y001164D02*
X018253Y001214D01*
X018259Y001264D01*
X018269Y001313D01*
X018283Y001361D01*
X018300Y001408D01*
X018321Y001453D01*
X018346Y001497D01*
X018374Y001538D01*
X018406Y001577D01*
X018440Y001614D01*
X018477Y001648D01*
X018517Y001678D01*
X018559Y001705D01*
X018603Y001729D01*
X018649Y001750D01*
X018696Y001766D01*
X018744Y001779D01*
X018794Y001788D01*
X018843Y001793D01*
X018894Y001794D01*
X018944Y001791D01*
X018993Y001784D01*
X019042Y001773D01*
X019090Y001758D01*
X019136Y001740D01*
X019181Y001718D01*
X019224Y001692D01*
X019265Y001663D01*
X019304Y001631D01*
X019340Y001596D01*
X019372Y001558D01*
X019402Y001518D01*
X019429Y001475D01*
X019452Y001431D01*
X019471Y001385D01*
X019487Y001337D01*
X019499Y001288D01*
X019507Y001239D01*
X019511Y001189D01*
X019511Y001139D01*
X019507Y001089D01*
X019499Y001040D01*
X019487Y000991D01*
X019471Y000943D01*
X019452Y000897D01*
X019429Y000853D01*
X019402Y000810D01*
X019372Y000770D01*
X019340Y000732D01*
X019304Y000697D01*
X019265Y000665D01*
X019224Y000636D01*
X019181Y000610D01*
X019136Y000588D01*
X019090Y000570D01*
X019042Y000555D01*
X018993Y000544D01*
X018944Y000537D01*
X018894Y000534D01*
X018843Y000535D01*
X018794Y000540D01*
X018744Y000549D01*
X018696Y000562D01*
X018649Y000578D01*
X018603Y000599D01*
X018559Y000623D01*
X018517Y000650D01*
X018477Y000680D01*
X018440Y000714D01*
X018406Y000751D01*
X018374Y000790D01*
X018346Y000831D01*
X018321Y000875D01*
X018300Y000920D01*
X018283Y000967D01*
X018269Y001015D01*
X018259Y001064D01*
X018253Y001114D01*
X018251Y001164D01*
M02*
